<svg width="340" height="47" viewBox="0 0 340 47" fill="none" xmlns="http://www.w3.org/2000/svg" preserveAspectRatio="none">
<g clip-path="url(#clip0_10930_236)">
<path d="M310.769 0.57334V46.427H319.487V29.6904H331.282V46.427H340V0.57334H331.282V22.1246H319.487V0.57334H310.769Z" fill="black"/>
<path d="M295.056 -2.35673e-06C289.894 -2.35673e-06 286.03 1.26097 283.466 3.78293C280.902 6.34309 279.62 10.1642 279.62 15.2463V31.5244C279.62 36.6829 280.902 40.5423 283.466 43.1024C286.065 45.7008 289.945 47 295.108 47C300.304 47 304.099 45.7199 306.492 43.1598C308.92 40.5996 310.253 36.4346 310.492 30.6646L301.774 30.0915C301.535 33.798 300.954 36.2817 300.031 37.5427C299.142 38.8037 297.484 39.4341 295.056 39.4341C292.629 39.4341 290.902 38.7654 289.877 37.428C288.851 36.0906 288.338 33.8362 288.338 30.6646V16.0488C288.338 12.9919 288.851 10.8138 289.877 9.51463C290.902 8.21544 292.629 7.56585 295.056 7.56585C297.449 7.56585 299.108 8.17723 300.031 9.4C300.954 10.6228 301.535 13.0492 301.774 16.6793L310.492 16.1061C310.253 10.4126 308.92 6.30488 306.492 3.78293C304.099 1.26097 300.287 -2.35673e-06 295.056 -2.35673e-06Z" fill="black"/>
<path d="M268.164 19.316L263.856 38.6892L259.241 19.316H268.164ZM272.369 0.57334L269.857 11.7502H257.446L254.779 0.57334H246.728L258.523 46.427H268.933L280.729 0.57334H272.369Z" fill="black"/>
<path d="M218.246 0.57334V46.427H247.785V38.8611H226.964V28.888H245.221V21.3221H226.964V8.1392H247.785V0.57334H218.246Z" fill="black"/>
<path d="M202.379 -2.35673e-06C197.49 -2.35673e-06 193.713 1.3756 191.046 4.12682C188.413 6.91625 187.097 10.8902 187.097 16.0488V30.7219C187.097 35.9569 188.396 39.9691 190.995 42.7585C193.593 45.5862 197.337 47 202.226 47C206.978 47 210.55 45.7581 212.944 43.2744C215.371 40.8289 216.704 37.2752 216.944 32.6134L208.226 32.0402C208.021 34.7915 207.474 36.702 206.585 37.772C205.696 38.8801 204.26 39.4341 202.277 39.4341C199.918 39.4341 198.243 38.7272 197.251 37.3134C196.294 35.9378 195.815 33.4732 195.815 29.9195V16.8512C195.815 13.4122 196.294 11.0049 197.251 9.62927C198.243 8.25366 199.935 7.56585 202.328 7.56585C204.653 7.56585 206.277 8.25366 207.2 9.62927C208.123 11.0431 208.568 13.5268 208.533 17.0805H202.02V24.6463H217.251V16.2207C217.251 10.9858 215.969 6.97357 213.405 4.18414C210.841 1.39471 207.166 -2.35673e-06 202.379 -2.35673e-06Z" fill="black"/>
<path d="M175.23 0.57334L164.051 33.2441V0.57334H156.563V46.427H166.461L178.307 11.8075V46.427H185.795V0.57334H175.23Z" fill="black"/>
<path d="M125.723 0.57334V8.1392H135.979V38.8611H125.723V46.427H154.954V38.8611H144.697V8.1392H154.954V0.57334H125.723Z" fill="black"/>
<path d="M97.4458 0.57334V46.427H106.164V8.1392H124.113V0.57334H97.4458Z" fill="black"/>
<path d="M78.5538 0.0574446C75.3059 0.0574446 72.3999 0.535088 69.8357 1.49037C67.3058 2.48387 65.0323 3.85947 63.0151 5.6172L65.7331 12.7818C67.5793 11.177 69.528 9.91598 71.5794 8.99891C73.6649 8.08184 76.041 7.6233 78.7077 7.6233C80.8615 7.6233 82.4855 8.12004 83.5795 9.11354C84.6736 10.107 85.2206 11.4253 85.2206 13.0684C85.2206 14.979 84.6223 16.3355 83.4257 17.1379C82.2291 17.9404 80.0752 18.781 76.9641 19.6599C72.1777 20.9591 68.8443 22.6022 66.9639 24.5892C65.1177 26.5761 64.1946 29.4611 64.1946 33.244C64.1946 37.2562 65.4083 40.5233 67.8357 43.0453C70.2631 45.6054 73.7674 46.8855 78.3487 46.8855C80.947 46.8855 83.5112 46.3696 86.0411 45.3379C88.5711 44.3444 90.6566 43.0835 92.2976 41.555L89.9386 34.677C88.0924 36.129 86.2291 37.2562 84.3488 38.0587C82.4684 38.8611 80.5026 39.2623 78.4513 39.2623C76.6393 39.2623 75.2546 38.842 74.2973 38.0014C73.3401 37.1989 72.8614 35.9761 72.8614 34.3331C72.8614 32.7282 73.4084 31.4672 74.5025 30.5501C75.6307 29.6331 77.9213 28.6969 81.3744 27.7416C86.0582 26.5188 89.3232 24.8757 91.1694 22.8123C93.0156 20.7871 93.9386 17.8066 93.9386 13.8709C93.9386 9.43834 92.5198 6.01842 89.6822 3.6111C86.8445 1.242 83.1351 0.0574446 78.5538 0.0574446Z" fill="black"/>
<path d="M33.1997 0.57334V8.1392H43.4563V38.8611H33.1997V46.427H62.4309V38.8611H52.1743V8.1392H62.4309V0.57334H33.1997Z" fill="black"/>
<path d="M21.4362 19.316L17.1284 38.6892L12.513 19.316H21.4362ZM25.6414 0.57334L23.1285 11.7502H10.7181L8.0514 0.57334H0L11.795 46.427H22.2054L34.0005 0.57334H25.6414Z" fill="black"/>
</g>
<defs>
<clipPath id="clip0_10930_236">
<rect width="340" height="47" fill="white"/>
</clipPath>
</defs>
</svg>
