<svg width="340" height="47" viewBox="0 0 340 47" fill="none" xmlns="http://www.w3.org/2000/svg" preserveAspectRatio="none">
<g clip-path="url(#clip0_10930_236)">
<path d="M350.32 19.3158L345.433 38.689L340.196 19.3158H350.32ZM355.091 0.573097L352.24 11.7499H338.16L335.135 0.573097H326L339.382 46.4268H351.193L364.575 0.573097H355.091Z" fill="black"/>
<path d="M287.926 0.573097V46.4268H321.439V38.8609H297.817V28.8877H318.53V21.3219H297.817V8.13895H321.439V0.573097H287.926Z" fill="black"/>
<path d="M264.165 1.18321e-06C258.619 1.18321e-06 254.333 1.37561 251.307 4.12683C248.32 6.91626 246.827 10.8902 246.827 16.0488V30.722C246.827 35.9569 248.301 39.9691 251.249 42.7585C254.197 45.5862 258.444 47 263.991 47C269.382 47 273.436 45.7581 276.151 43.2744C278.905 40.8289 280.417 37.2752 280.689 32.6134L270.798 32.0402C270.565 34.7915 269.945 36.702 268.936 37.772C267.928 38.8801 266.299 39.4341 264.049 39.4341C261.373 39.4341 259.472 38.7272 258.347 37.3134C257.261 35.9378 256.718 33.4732 256.718 29.9195V16.8512C256.718 13.4122 257.261 11.0049 258.347 9.62927C259.472 8.25366 261.392 7.56585 264.107 7.56585C266.745 7.56585 268.587 8.25366 269.634 9.62927C270.682 11.0431 271.186 13.5268 271.147 17.0805H263.758V24.6463H281.038V16.2207C281.038 10.9858 279.584 6.97358 276.674 4.18415C273.765 1.39472 269.596 1.18321e-06 264.165 1.18321e-06Z" fill="black"/>
<path d="M227.604 0.573097L214.921 33.2438V0.573097H206.426V46.4268H217.655L231.095 11.8072V46.4268H239.59V0.573097H227.604Z" fill="black"/>
<path d="M165.676 0.573097V8.13895H177.313V38.8609H165.676V46.4268H198.84V38.8609H187.204V8.13895H198.84V0.573097H165.676Z" fill="black"/>
<path d="M127.835 0.573097V46.4268H137.726V8.13895H158.09V0.573097H127.835Z" fill="black"/>
<path d="M100.642 0.0572061C96.9569 0.0572061 93.66 0.534847 90.7509 1.49013C87.8806 2.48363 85.3012 3.85924 83.0127 5.61696L86.0963 12.7816C88.1909 11.1767 90.4018 9.91574 92.7291 8.99867C95.0951 8.08159 97.7909 7.62306 100.816 7.62306C103.26 7.62306 105.102 8.11981 106.344 9.1133C107.585 10.1068 108.205 11.4251 108.205 13.0682C108.205 14.9787 107.527 16.3353 106.169 17.1377C104.811 17.9401 102.368 18.7808 98.8382 19.6596C93.4078 20.9588 89.626 22.6019 87.4927 24.5889C85.3982 26.5759 84.3509 29.4609 84.3509 33.2438C84.3509 37.256 85.7278 40.5231 88.4818 43.045C91.2357 45.6052 95.2115 46.8853 100.409 46.8853C103.357 46.8853 106.266 46.3694 109.136 45.3377C112.007 44.3442 114.373 43.0832 116.235 41.5548L113.558 34.6767C111.464 36.1287 109.35 37.256 107.216 38.0584C105.083 38.8609 102.853 39.2621 100.525 39.2621C98.4697 39.2621 96.8988 38.8418 95.8127 38.0011C94.7266 37.1987 94.1836 35.9759 94.1836 34.3328C94.1836 32.7279 94.8042 31.467 96.0454 30.5499C97.3254 29.6328 99.9242 28.6966 103.842 27.7414C109.156 26.5186 112.86 24.8755 114.955 22.8121C117.049 20.7869 118.096 17.8064 118.096 13.8706C118.096 9.4381 116.487 6.01818 113.267 3.61086C110.048 1.24176 105.839 0.0572061 100.642 0.0572061Z" fill="black"/>
<path d="M43.4263 0.573097V8.13895H55.0626V38.8609H43.4263V46.4268H76.5899V38.8609H64.9535V8.13895H76.5899V0.573097H43.4263Z" fill="black"/>
<path d="M24.32 19.3158L19.4327 38.689L14.1964 19.3158H24.32ZM29.0909 0.573097L26.24 11.7499H12.16L9.13455 0.573097H0L13.3818 46.4268H25.1927L38.5745 0.573097H29.0909Z" fill="black"/>
</g>
<defs>
<clipPath id="clip0_10930_236">
<rect width="340" height="47" fill="white"/>
</clipPath>
</defs>
</svg>
