<svg preserveAspectRatio="none" width="340" height="47" viewBox="0 0 340 47" fill="none" xmlns="http://www.w3.org/2000/svg">
<g clip-path="url(#clip0_10945_175)">
<path d="M350.32 28.1018L345.433 8.43633L340.196 28.1018H350.32ZM355.091 47.1272L352.24 35.7818H338.16L335.135 47.1272H326L339.382 0.581787H351.193L364.575 47.1272H355.091Z" fill="black"/>
<path d="M287.926 47.1272V0.581787H321.439V8.26179H297.817V18.3854H318.53V26.0654H297.817V39.4472H321.439V47.1272H287.926Z" fill="black"/>
<path d="M264.165 47.7091C258.619 47.7091 254.333 46.3127 251.307 43.52C248.32 40.6885 246.827 36.6545 246.827 31.4182V16.5236C246.827 11.2097 248.301 7.13697 251.249 4.30545C254.197 1.43515 258.444 0 263.991 0C269.382 0 273.436 1.26061 276.151 3.78182C278.905 6.26424 280.417 9.87152 280.689 14.6036L270.798 15.1855C270.565 12.3927 269.945 10.4533 268.936 9.36727C267.928 8.24242 266.299 7.68 264.049 7.68C261.373 7.68 259.472 8.39758 258.347 9.83273C257.261 11.2291 256.718 13.7309 256.718 17.3382V30.6036C256.718 34.0945 257.261 36.5382 258.347 37.9345C259.472 39.3309 261.392 40.0291 264.107 40.0291C266.745 40.0291 268.587 39.3309 269.634 37.9345C270.682 36.4994 271.186 33.9782 271.147 30.3709H263.758V22.6909H281.038V31.2436C281.038 36.5576 279.584 40.6303 276.674 43.4618C273.765 46.2933 269.596 47.7091 264.165 47.7091Z" fill="black"/>
<path d="M227.604 47.1272L214.921 13.9636V47.1272H206.426V0.581787H217.655L231.095 35.7236V0.581787H239.59V47.1272H227.604Z" fill="black"/>
<path d="M165.676 47.1272V39.4472H177.313V8.26179H165.676V0.581787H198.84V8.26179H187.204V39.4472H198.84V47.1272H165.676Z" fill="black"/>
<path d="M127.835 47.1272V0.581787H137.726V39.4472H158.09V47.1272H127.835Z" fill="black"/>
<path d="M100.642 47.651C96.9569 47.651 93.66 47.1662 90.7509 46.1965C87.8806 45.188 85.3012 43.7916 83.0127 42.0074L86.0963 34.7346C88.1909 36.3637 90.4018 37.6437 92.7291 38.5746C95.0951 39.5055 97.7909 39.971 100.816 39.971C103.26 39.971 105.102 39.4668 106.344 38.4583C107.585 37.4498 108.205 36.1116 108.205 34.4437C108.205 32.5043 107.527 31.1274 106.169 30.3128C104.811 29.4983 102.368 28.6449 98.8382 27.7528C93.4078 26.434 89.626 24.7662 87.4927 22.7492C85.3982 20.7322 84.3509 17.8037 84.3509 13.9637C84.3509 9.891 85.7278 6.57464 88.4818 4.01464C91.2357 1.41585 95.2115 0.116455 100.409 0.116455C103.357 0.116455 106.266 0.640092 109.136 1.68737C112.007 2.69585 114.373 3.97585 116.235 5.52737L113.558 12.5092C111.464 11.0352 109.35 9.891 107.216 9.07645C105.083 8.26191 102.853 7.85464 100.525 7.85464C98.4697 7.85464 96.8988 8.2813 95.8127 9.13464C94.7266 9.94918 94.1836 11.1904 94.1836 12.8583C94.1836 14.4874 94.8042 15.7674 96.0454 16.6983C97.3254 17.6292 99.9242 18.5795 103.842 19.5492C109.156 20.7904 112.86 22.4583 114.955 24.5528C117.049 26.6086 118.096 29.634 118.096 33.6292C118.096 38.1286 116.487 41.6001 113.267 44.0437C110.048 46.4486 105.839 47.651 100.642 47.651Z" fill="black"/>
<path d="M43.4263 47.1272V39.4472H55.0626V8.26179H43.4263V0.581787H76.5899V8.26179H64.9535V39.4472H76.5899V47.1272H43.4263Z" fill="black"/>
<path d="M24.32 28.1018L19.4327 8.43633L14.1964 28.1018H24.32ZM29.0909 47.1272L26.24 35.7818H12.16L9.13455 47.1272H0L13.3818 0.581787H25.1927L38.5745 47.1272H29.0909Z" fill="black"/>
</g>
<defs>
<clipPath id="clip0_10945_175">
<rect width="340" height="47" fill="white" transform="matrix(1 0 0 -1 0 47)"/>
</clipPath>
</defs>
</svg>
