<svg preserveAspectRatio="none" width="340" height="47" viewBox="0 0 340 47" fill="none" xmlns="http://www.w3.org/2000/svg">
<g clip-path="url(#clip0_10945_175)">
<path d="M350.32 18.8982L345.433 38.5637L340.196 18.8982H350.32ZM355.091 -0.127243L352.24 11.2182H338.16L335.135 -0.127243H326L339.382 46.4182H351.193L364.575 -0.127243H355.091Z" fill="black"/>
<path d="M287.926 -0.127243V46.4182H321.439V38.7382H297.817V28.6146H318.53V20.9346H297.817V7.55276H321.439V-0.127243H287.926Z" fill="black"/>
<path d="M264.165 -0.709091C258.619 -0.709091 254.333 0.687272 251.307 3.48C248.32 6.31151 246.827 10.3455 246.827 15.5818V30.4764C246.827 35.7903 248.301 39.863 251.249 42.6945C254.197 45.5648 258.444 47 263.991 47C269.382 47 273.436 45.7394 276.151 43.2182C278.905 40.7358 280.417 37.1285 280.689 32.3964L270.798 31.8145C270.565 34.6073 269.945 36.5467 268.936 37.6327C267.928 38.7576 266.299 39.32 264.049 39.32C261.373 39.32 259.472 38.6024 258.347 37.1673C257.261 35.7709 256.718 33.2691 256.718 29.6618V16.3964C256.718 12.9055 257.261 10.4618 258.347 9.06545C259.472 7.66909 261.392 6.97091 264.107 6.97091C266.745 6.97091 268.587 7.66909 269.634 9.06545C270.682 10.5006 271.186 13.0218 271.147 16.6291H263.758V24.3091H281.038V15.7564C281.038 10.4424 279.584 6.3697 276.674 3.53818C273.765 0.706666 269.596 -0.709091 264.165 -0.709091Z" fill="black"/>
<path d="M227.604 -0.127243L214.921 33.0364V-0.127243H206.426V46.4182H217.655L231.095 11.2764V46.4182H239.59V-0.127243H227.604Z" fill="black"/>
<path d="M165.676 -0.127243V7.55276H177.313V38.7382H165.676V46.4182H198.84V38.7382H187.204V7.55276H198.84V-0.127243H165.676Z" fill="black"/>
<path d="M127.835 -0.127243V46.4182H137.726V7.55276H158.09V-0.127243H127.835Z" fill="black"/>
<path d="M100.642 -0.651001C96.9569 -0.651001 93.66 -0.166154 90.7509 0.803543C87.8806 1.81203 85.3012 3.20839 83.0127 4.99263L86.0963 12.2654C88.1909 10.6363 90.4018 9.35627 92.7291 8.42536C95.0951 7.49445 97.7909 7.029 100.816 7.029C103.26 7.029 105.102 7.53324 106.344 8.54173C107.585 9.55021 108.205 10.8884 108.205 12.5563C108.205 14.4957 107.527 15.8726 106.169 16.6872C104.811 17.5017 102.368 18.3551 98.8382 19.2472C93.4078 20.566 89.626 22.2338 87.4927 24.2508C85.3982 26.2678 84.3509 29.1963 84.3509 33.0363C84.3509 37.109 85.7278 40.4254 88.4818 42.9854C91.2357 45.5842 95.2115 46.8835 100.409 46.8835C103.357 46.8835 106.266 46.3599 109.136 45.3126C112.007 44.3041 114.373 43.0241 116.235 41.4726L113.558 34.4908C111.464 35.9648 109.35 37.109 107.216 37.9235C105.083 38.7381 102.853 39.1454 100.525 39.1454C98.4697 39.1454 96.8988 38.7187 95.8127 37.8654C94.7266 37.0508 94.1836 35.8096 94.1836 34.1417C94.1836 32.5126 94.8042 31.2326 96.0454 30.3017C97.3254 29.3708 99.9242 28.4205 103.842 27.4508C109.156 26.2096 112.86 24.5417 114.955 22.4472C117.049 20.3914 118.096 17.366 118.096 13.3708C118.096 8.87143 116.487 5.39991 113.267 2.95627C110.048 0.551424 105.839 -0.651001 100.642 -0.651001Z" fill="black"/>
<path d="M43.4263 -0.127243V7.55276H55.0626V38.7382H43.4263V46.4182H76.5899V38.7382H64.9535V7.55276H76.5899V-0.127243H43.4263Z" fill="black"/>
<path d="M24.32 18.8982L19.4327 38.5637L14.1964 18.8982H24.32ZM29.0909 -0.127243L26.24 11.2182H12.16L9.13455 -0.127243H0L13.3818 46.4182H25.1927L38.5745 -0.127243H29.0909Z" fill="black"/>
</g>
<defs>
<clipPath id="clip0_10945_175">
<rect width="340" height="47" fill="white"/>
</clipPath>
</defs>
</svg>
