<svg preserveAspectRatio="none" width="340" height="47" viewBox="0 0 340 47" fill="none" xmlns="http://www.w3.org/2000/svg">
<g clip-path="url(#clip0_10945_175)">
<path d="M286.472 -0.651001C282.787 -0.651001 279.49 -0.166154 276.581 0.803543C273.711 1.81203 271.131 3.20839 268.843 4.99263L271.926 12.2654C274.021 10.6363 276.232 9.35627 278.559 8.42536C280.925 7.49445 283.621 7.029 286.646 7.029C289.09 7.029 290.932 7.53324 292.174 8.54173C293.415 9.55021 294.035 10.8884 294.035 12.5563C294.035 14.4957 293.357 15.8726 291.999 16.6872C290.642 17.5017 288.198 18.3551 284.668 19.2472C279.238 20.566 275.456 22.2338 273.323 24.2508C271.228 26.2678 270.181 29.1963 270.181 33.0363C270.181 37.109 271.558 40.4254 274.312 42.9854C277.066 45.5842 281.042 46.8835 286.239 46.8835C289.187 46.8835 292.096 46.3599 294.966 45.3126C297.837 44.3041 300.203 43.0241 302.065 41.4726L299.388 34.4908C297.294 35.9648 295.18 37.109 293.046 37.9235C290.913 38.7381 288.683 39.1454 286.355 39.1454C284.3 39.1454 282.729 38.7187 281.643 37.8654C280.557 37.0508 280.014 35.8096 280.014 34.1417C280.014 32.5126 280.634 31.2326 281.875 30.3017C283.155 29.3708 285.754 28.4205 289.672 27.4508C294.986 26.2096 298.69 24.5417 300.785 22.4472C302.879 20.3914 303.926 17.366 303.926 13.3708C303.926 8.87143 302.317 5.39991 299.097 2.95627C295.878 0.551424 291.669 -0.651001 286.472 -0.651001Z" fill="black"/>
<path d="M248.398 -0.709091C242.852 -0.709091 238.643 0.629091 235.773 3.30545C232.902 6.02061 231.467 9.84121 231.467 14.7673V31.2909C231.467 36.2558 232.902 40.1152 235.773 42.8691C238.682 45.623 242.91 47 248.456 47C254.003 47 258.192 45.623 261.024 42.8691C263.894 40.1152 265.329 36.2558 265.329 31.2909V14.7673C265.329 9.84121 263.894 6.02061 261.024 3.30545C258.153 0.629091 253.945 -0.709091 248.398 -0.709091ZM248.398 6.97091C250.919 6.97091 252.723 7.61091 253.809 8.89091C254.895 10.2097 255.438 12.44 255.438 15.5818V30.4764C255.438 33.6182 254.895 35.8679 253.809 37.2255C252.723 38.6218 250.919 39.32 248.398 39.32C245.877 39.32 244.073 38.6218 242.987 37.2255C241.901 35.8679 241.358 33.6182 241.358 30.4764V15.5818C241.358 12.44 241.901 10.2097 242.987 8.89091C244.073 7.61091 245.877 6.97091 248.398 6.97091Z" fill="black"/>
<path d="M205.263 -0.127243V38.7382H191.939V46.4182H228.477V38.7382H215.154V-0.127243H205.263Z" fill="black"/>
<path d="M176.615 -0.127243L163.931 33.0364V-0.127243H155.437V46.4182H166.666L180.106 11.2764V46.4182H188.6V-0.127243H176.615Z" fill="black"/>
<path d="M138.89 18.8982L134.003 38.5637L128.766 18.8982H138.89ZM143.661 -0.127243L140.81 11.2182H126.73L123.704 -0.127243H114.57L127.952 46.4182H139.763L153.144 -0.127243H143.661Z" fill="black"/>
<path d="M79.0562 -0.127243V7.55276H90.6925V38.7382H79.0562V46.4182H112.22V38.7382H100.583V7.55276H112.22V-0.127243H79.0562Z" fill="black"/>
<path d="M54.0737 13.5455L47.7319 31.8146L48.6628 -0.127243H39.9355V46.4182H49.8265L57.6228 22.9709L65.361 46.4182H74.961V-0.127243H66.2919L67.1065 31.5818L60.881 13.5455H54.0737Z" fill="black"/>
<path d="M24.32 18.8982L19.4327 38.5637L14.1964 18.8982H24.32ZM29.0909 -0.127243L26.24 11.2182H12.16L9.13455 -0.127243H0L13.3818 46.4182H25.1927L38.5745 -0.127243H29.0909Z" fill="black"/>
</g>
<defs>
<clipPath id="clip0_10945_175">
<rect width="340" height="47" fill="white" transform="matrix(1 0 0 -1 0 47)"/>
</clipPath>
</defs>
</svg>
