<svg preserveAspectRatio="none" width="340" height="47" viewBox="0 0 340 47" fill="none" xmlns="http://www.w3.org/2000/svg">
<g clip-path="url(#clip0_10945_175)">
<path d="M286.472 47.651C282.787 47.651 279.49 47.1662 276.581 46.1965C273.711 45.188 271.131 43.7916 268.843 42.0074L271.926 34.7346C274.021 36.3637 276.232 37.6437 278.559 38.5746C280.925 39.5055 283.621 39.971 286.646 39.971C289.09 39.971 290.932 39.4668 292.174 38.4583C293.415 37.4498 294.035 36.1116 294.035 34.4437C294.035 32.5043 293.357 31.1274 291.999 30.3128C290.642 29.4983 288.198 28.6449 284.668 27.7528C279.238 26.434 275.456 24.7662 273.323 22.7492C271.228 20.7322 270.181 17.8037 270.181 13.9637C270.181 9.891 271.558 6.57464 274.312 4.01464C277.066 1.41585 281.042 0.116455 286.239 0.116455C289.187 0.116455 292.096 0.640092 294.966 1.68737C297.837 2.69585 300.203 3.97585 302.065 5.52737L299.388 12.5092C297.294 11.0352 295.18 9.891 293.046 9.07645C290.913 8.26191 288.683 7.85464 286.355 7.85464C284.3 7.85464 282.729 8.2813 281.643 9.13464C280.557 9.94918 280.014 11.1904 280.014 12.8583C280.014 14.4874 280.634 15.7674 281.875 16.6983C283.155 17.6292 285.754 18.5795 289.672 19.5492C294.986 20.7904 298.69 22.4583 300.785 24.5528C302.879 26.6086 303.926 29.634 303.926 33.6292C303.926 38.1286 302.317 41.6001 299.097 44.0437C295.878 46.4486 291.669 47.651 286.472 47.651Z" fill="black"/>
<path d="M248.398 47.7091C242.852 47.7091 238.643 46.3709 235.773 43.6945C232.902 40.9794 231.467 37.1588 231.467 32.2327V15.7091C231.467 10.7442 232.902 6.88485 235.773 4.13091C238.682 1.37697 242.91 0 248.456 0C254.003 0 258.192 1.37697 261.024 4.13091C263.894 6.88485 265.329 10.7442 265.329 15.7091V32.2327C265.329 37.1588 263.894 40.9794 261.024 43.6945C258.153 46.3709 253.945 47.7091 248.398 47.7091ZM248.398 40.0291C250.919 40.0291 252.723 39.3891 253.809 38.1091C254.895 36.7903 255.438 34.56 255.438 31.4182V16.5236C255.438 13.3818 254.895 11.1321 253.809 9.77455C252.723 8.37818 250.919 7.68 248.398 7.68C245.877 7.68 244.073 8.37818 242.987 9.77455C241.901 11.1321 241.358 13.3818 241.358 16.5236V31.4182C241.358 34.56 241.901 36.7903 242.987 38.1091C244.073 39.3891 245.877 40.0291 248.398 40.0291Z" fill="black"/>
<path d="M205.263 47.1272V8.26179H191.939V0.581787H228.477V8.26179H215.154V47.1272H205.263Z" fill="black"/>
<path d="M176.615 47.1272L163.931 13.9636V47.1272H155.437V0.581787H166.666L180.106 35.7236V0.581787H188.6V47.1272H176.615Z" fill="black"/>
<path d="M138.89 28.1018L134.003 8.43633L128.766 28.1018H138.89ZM143.661 47.1272L140.81 35.7818H126.73L123.704 47.1272H114.57L127.952 0.581787H139.763L153.144 47.1272H143.661Z" fill="black"/>
<path d="M79.0562 47.1272V39.4472H90.6925V8.26179H79.0562V0.581787H112.22V8.26179H100.583V39.4472H112.22V47.1272H79.0562Z" fill="black"/>
<path d="M54.0737 33.4545L47.7319 15.1854L48.6628 47.1272H39.9355V0.581787H49.8265L57.6228 24.0291L65.361 0.581787H74.961V47.1272H66.2919L67.1065 15.4182L60.881 33.4545H54.0737Z" fill="black"/>
<path d="M24.32 28.1018L19.4327 8.43633L14.1964 28.1018H24.32ZM29.0909 47.1272L26.24 35.7818H12.16L9.13455 47.1272H0L13.3818 0.581787H25.1927L38.5745 47.1272H29.0909Z" fill="black"/>
</g>
<defs>
<clipPath id="clip0_10945_175">
<rect width="340" height="47" fill="white"/>
</clipPath>
</defs>
</svg>
