<svg width="48" height="160" viewBox="0 0 48 160" fill="none" xmlns="http://www.w3.org/2000/svg">
<path d="M47.9893 17.5199C47.9893 21.2083 47.5099 24.5084 46.5511 27.4203C45.5539 30.2934 44.1733 32.8753 42.4091 35.166L35.2181 32.0794C36.8289 29.9828 38.0945 27.7698 39.015 25.4402C39.9354 23.0719 40.3956 20.3735 40.3956 17.3452C40.3956 14.8992 39.8971 13.0549 38.8999 11.8125C37.9028 10.5701 36.5796 9.94891 34.9305 9.94891C33.0129 9.94891 31.6514 10.6284 30.8461 11.9872C30.0407 13.3461 29.1969 15.7921 28.3148 19.3253C27.0109 24.7608 25.3618 28.5463 23.3675 30.6817C21.3732 32.7783 18.4776 33.8265 14.6808 33.8265C10.6539 33.8265 7.37481 32.4482 4.8436 29.6916C2.27404 26.935 0.989258 22.9554 0.989258 17.7528C0.989258 14.8021 1.50701 11.8902 2.5425 9.0171C3.53965 6.14402 4.80525 3.77568 6.33932 1.91206L13.2426 4.59101C11.7853 6.68758 10.6539 8.80356 9.8485 10.939C9.04311 13.0744 8.64042 15.3068 8.64042 17.6363C8.64042 19.6941 9.06229 21.2665 9.90603 22.3536C10.7114 23.4407 11.9387 23.9843 13.5878 23.9843C15.1986 23.9843 16.4642 23.3631 17.3846 22.1207C18.305 20.8394 19.2447 18.2381 20.2035 14.3168C21.4307 8.9977 23.0798 5.28987 25.1508 3.1933C27.1835 1.09673 30.1749 0.0484429 34.1251 0.0484429C38.5739 0.0484429 42.0064 1.65969 44.4225 4.8822C46.8004 8.10471 47.9893 12.3173 47.9893 17.5199Z" fill="black"/>
<path d="M47.4713 74.7905H1.44922L1.44922 57.1444C1.44922 52.0582 2.50389 48.1175 4.61323 45.322C6.68423 42.4878 9.92495 41.0707 14.3354 41.0707H20.4908C24.7479 41.0707 27.8927 42.4684 29.9254 45.2638C31.9196 48.0592 32.9168 52.0194 32.9168 57.1444V64.89H47.4713V74.7905ZM25.4382 64.89V57.6685C25.4382 55.3778 25.0355 53.6889 24.2301 52.6018C23.4247 51.5147 21.929 50.9711 19.743 50.9711H14.9107C12.6479 50.9711 11.1138 51.5147 10.3085 52.6018C9.46472 53.6889 9.04285 55.3778 9.04285 57.6685V64.89H25.4382Z" fill="black"/>
<path d="M47.4713 115.58H1.44922L1.44922 97.9337C1.44922 92.8476 2.50389 88.9068 4.61323 86.1114C6.68423 83.2771 9.92495 81.86 14.3354 81.86H20.4908C24.7479 81.86 27.8927 83.2577 29.9254 86.0531C31.9196 88.8485 32.9168 92.8087 32.9168 97.9337V105.679H47.4713V115.58ZM25.4382 105.679V98.4578C25.4382 96.1671 25.0355 94.4782 24.2301 93.3911C23.4247 92.304 21.929 91.7604 19.743 91.7604H14.9107C12.6479 91.7604 11.1138 92.304 10.3085 93.3911C9.46472 94.4782 9.04285 96.1671 9.04285 98.4578V105.679H25.4382Z" fill="black"/>
<path d="M28.6597 134.705L9.21544 139.597L28.6597 144.838V134.705ZM47.4713 129.929L36.2534 132.783V146.877L47.4713 149.905V159.048L1.44922 145.654L1.44922 133.831L47.4713 120.436V129.929Z" fill="black"/>
</svg>
