<svg width="48" height="198" viewBox="0 0 48 198" fill="none" xmlns="http://www.w3.org/2000/svg">
<path d="M47.8149 17.76C47.8149 21.4463 47.3372 24.7446 46.3819 27.6549C45.3884 30.5264 44.0128 33.1068 42.2551 35.3962L35.0905 32.3114C36.6954 30.216 37.9563 28.0041 38.8734 25.6759C39.7905 23.3089 40.249 20.6121 40.249 17.5854C40.249 15.1407 39.7523 13.2976 38.7588 12.0558C37.7653 10.8141 36.447 10.1933 34.8039 10.1933C32.8933 10.1933 31.5368 10.8723 30.7344 12.2305C29.9319 13.5886 29.0913 16.0332 28.2124 19.5644C26.9132 24.9969 25.2701 28.7802 23.2832 30.9144C21.2962 33.0098 18.4112 34.0575 14.6283 34.0575C10.6161 34.0575 7.34901 32.68 4.82706 29.9249C2.2669 27.1699 0.986816 23.1925 0.986816 17.9928C0.986816 15.0437 1.50267 12.1335 2.53438 9.26199C3.52787 6.39052 4.78885 4.0235 6.31731 2.16093L13.1954 4.83837C11.7433 6.93377 10.6161 9.04856 9.81364 11.1828C9.01121 13.317 8.60999 15.5482 8.60999 17.8764C8.60999 19.933 9.03031 21.5045 9.87096 22.591C10.6734 23.6775 11.8962 24.2208 13.5393 24.2208C15.1441 24.2208 16.4051 23.5999 17.3222 22.3582C18.2393 21.0777 19.1754 18.4779 20.1307 14.5587C21.3535 9.24259 22.9966 5.53684 25.06 3.44145C27.0852 1.34605 30.0657 0.298354 34.0014 0.298354C38.434 0.298354 41.8539 1.9087 44.2612 5.1294C46.6303 8.3501 47.8149 12.5603 47.8149 17.76Z" fill="black"/>
<path d="M47.8726 58.0027C47.8726 63.5516 46.4969 67.8394 43.7457 70.8661C40.9563 73.854 36.9823 75.3479 31.8238 75.3479H17.1506C11.9156 75.3479 7.90345 73.8734 5.11402 70.9243C2.28638 67.9752 0.872559 63.7262 0.872559 58.1773C0.872559 52.7836 2.11443 48.7286 4.59817 46.0123C7.0437 43.2573 10.5974 41.744 15.2591 41.4723L15.8323 51.3672C13.0811 51.6001 11.1705 52.2209 10.1006 53.2298C8.99248 54.2387 8.43841 55.8685 8.43841 58.1191C8.43841 60.7965 9.14532 62.6979 10.5591 63.8232C11.9348 64.9097 14.3994 65.453 17.953 65.453H31.0213C34.4604 65.453 36.8677 64.9097 38.2433 63.8232C39.6189 62.6979 40.3067 60.7771 40.3067 58.0609C40.3067 55.4222 39.6189 53.5791 38.2433 52.5314C36.8295 51.4837 34.3457 50.9792 30.7921 51.018V58.4101H23.2262L23.2262 41.1231H31.6518C36.8868 41.1231 40.899 42.5782 43.6884 45.4885C46.4778 48.3988 47.8726 52.5702 47.8726 58.0027Z" fill="black"/>
<path d="M47.8726 99.1767C47.8726 104.726 46.5543 108.936 43.9177 111.807C41.2429 114.679 37.4791 116.115 32.6262 116.115H16.3482C11.4571 116.115 7.65508 114.679 4.94207 111.807C2.22906 108.897 0.872559 104.667 0.872559 99.1185C0.872559 93.5696 2.22906 89.3788 4.94207 86.5461C7.65508 83.6747 11.4571 82.2389 16.3482 82.2389H32.6262C37.4791 82.2389 41.2429 83.6747 43.9177 86.5461C46.5543 89.4176 47.8726 93.6278 47.8726 99.1767ZM40.3067 99.1767C40.3067 96.6545 39.6762 94.8501 38.4152 93.7636C37.1161 92.6771 34.9189 92.1338 31.8238 92.1338H17.1506C14.0555 92.1338 11.8392 92.6771 10.5018 93.7636C9.12622 94.8501 8.43841 96.6545 8.43841 99.1767C8.43841 101.699 9.12622 103.503 10.5018 104.59C11.8392 105.676 14.0555 106.22 17.1506 106.22H31.8238C34.9189 106.22 37.1161 105.676 38.4152 104.59C39.6762 103.503 40.3067 101.699 40.3067 99.1767Z" fill="black"/>
<path d="M47.2995 153.622H1.4458L1.4458 143.727H39.7336V123.355H47.2995V153.622Z" fill="black"/>
<path d="M47.2995 197.298H1.4458L1.4458 180.186C1.4458 175.064 2.32466 171.281 4.08239 168.836C5.84011 166.391 8.55312 165.169 12.2214 165.169H14.3421C16.673 165.169 18.469 165.732 19.7299 166.857C20.9909 167.943 21.8125 169.631 22.1946 171.921H23.8568C24.1243 169.321 25.0413 167.303 26.608 165.867C28.1365 164.432 30.0852 163.714 32.4543 163.714H35.3202C39.4088 163.714 42.4275 165.053 44.3763 167.73C46.3251 170.407 47.2995 174.559 47.2995 180.186V197.298ZM20.1312 187.403V180.826C20.1312 178.731 19.7873 177.237 19.0995 176.344C18.3734 175.413 17.1889 174.947 15.5458 174.947H13.1385C11.4954 174.947 10.3299 175.413 9.64214 176.344C8.95434 177.237 8.61044 178.731 8.61044 180.826V187.403H20.1312ZM40.1348 187.403V180.652C40.1348 178.091 39.7336 176.286 38.9312 175.238C38.0905 174.152 36.6958 173.609 34.747 173.609H32.1104C30.1999 173.609 28.8434 174.152 28.0409 175.238C27.2003 176.286 26.78 178.091 26.78 180.652V187.403H40.1348Z" fill="black"/>
</svg>
