<svg  preserveAspectRatio="none" width="340" height="47" viewBox="0 0 340 47" fill="none" xmlns="http://www.w3.org/2000/svg">
<g clip-path="url(#clip0_10945_175)">
<path d="M316.818 47.1272V8.26179H303.513V0.581787H340V8.26179H326.695V47.1272H316.818Z" fill="black"/>
<path d="M281.063 47.7091C275.524 47.7091 271.321 46.3709 268.455 43.6945C265.589 40.9794 264.156 37.1588 264.156 32.2327V15.7091C264.156 10.7442 265.589 6.88485 268.455 4.13091C271.36 1.37697 275.582 0 281.121 0C286.66 0 290.843 1.37697 293.671 4.13091C296.537 6.88485 297.97 10.7442 297.97 15.7091V32.2327C297.97 37.1588 296.537 40.9794 293.671 43.6945C290.804 46.3709 286.602 47.7091 281.063 47.7091ZM281.063 40.0291C283.581 40.0291 285.382 39.3891 286.466 38.1091C287.551 36.7903 288.093 34.56 288.093 31.4182V16.5236C288.093 13.3818 287.551 11.1321 286.466 9.77455C285.382 8.37818 283.581 7.68 281.063 7.68C278.545 7.68 276.744 8.37818 275.66 9.77455C274.575 11.1321 274.033 13.3818 274.033 16.5236V31.4182C274.033 34.56 274.575 36.7903 275.66 38.1091C276.744 39.3891 278.545 40.0291 281.063 40.0291Z" fill="black"/>
<path d="M240.37 47.7091C234.831 47.7091 230.629 46.3709 227.762 43.6945C224.896 40.9794 223.463 37.1588 223.463 32.2327V15.7091C223.463 10.7442 224.896 6.88485 227.762 4.13091C230.667 1.37697 234.889 0 240.428 0C245.967 0 250.15 1.37697 252.978 4.13091C255.844 6.88485 257.277 10.7442 257.277 15.7091V32.2327C257.277 37.1588 255.844 40.9794 252.978 43.6945C250.112 46.3709 245.909 47.7091 240.37 47.7091ZM240.37 40.0291C242.888 40.0291 244.689 39.3891 245.773 38.1091C246.858 36.7903 247.4 34.56 247.4 31.4182V16.5236C247.4 13.3818 246.858 11.1321 245.773 9.77455C244.689 8.37818 242.888 7.68 240.37 7.68C237.852 7.68 236.051 8.37818 234.967 9.77455C233.882 11.1321 233.34 13.3818 233.34 16.5236V31.4182C233.34 34.56 233.882 36.7903 234.967 38.1091C236.051 39.3891 237.852 40.0291 240.37 40.0291Z" fill="black"/>
<path d="M192.996 22.6909H200.549C203.028 22.6909 204.751 22.2836 205.72 21.4691C206.727 20.6157 207.23 19.1418 207.23 17.0472V13.7309C207.23 11.7527 206.727 10.3563 205.72 9.54179C204.751 8.68845 203.028 8.26179 200.549 8.26179H192.996V22.6909ZM192.996 47.1272H183.119V0.581787H201.827C206.901 0.581787 210.639 1.66785 213.04 3.83997C215.481 5.9733 216.701 9.11512 216.701 13.2654V17.28C216.701 20.6545 215.945 23.3697 214.435 25.4254C212.963 27.4424 210.716 28.8194 207.695 29.5563L218.037 47.1272H207.579L197.702 30.3127H192.996V47.1272Z" fill="black"/>
<path d="M122.079 47.1272V0.581787H138.173C143.596 0.581787 147.837 2.1333 150.897 5.23633C153.996 8.30058 155.545 12.3927 155.545 17.5127V30.4291C155.545 35.5103 153.996 39.5636 150.897 42.5891C147.837 45.6145 143.576 47.1272 138.115 47.1272H122.079ZM131.956 39.4472H137.301C140.323 39.4472 142.472 38.6715 143.751 37.12C145.029 35.5685 145.668 33.0666 145.668 29.6145V18.3272C145.668 14.8363 145.029 12.2957 143.751 10.7054C142.472 9.07633 140.323 8.26179 137.301 8.26179H131.956V39.4472Z" fill="black"/>
<path d="M102.999 28.1018L98.1189 8.43633L92.8899 28.1018H102.999ZM107.764 47.1272L104.917 35.7818H90.8564L87.8351 47.1272H78.7134L92.0765 0.581787H103.871L117.234 47.1272H107.764Z" fill="black"/>
<path d="M50.5699 22.6909H58.123C60.602 22.6909 62.3256 22.2836 63.2939 21.4691C64.301 20.6157 64.8046 19.1418 64.8046 17.0472V13.7309C64.8046 11.7527 64.301 10.3563 63.2939 9.54179C62.3256 8.68845 60.602 8.26179 58.123 8.26179H50.5699V22.6909ZM50.5699 47.1272H40.6929V0.581787H59.4012C64.4753 0.581787 68.2131 1.66785 70.6146 3.83997C73.0548 5.9733 74.2749 9.11512 74.2749 13.2654V17.28C74.2749 20.6545 73.5196 23.3697 72.009 25.4254C70.5371 27.4424 68.2906 28.8194 65.2694 29.5563L75.6112 47.1272H65.1532L55.2761 30.3127H50.5699V47.1272Z" fill="black"/>
<path d="M0 47.1272V0.581787H17.0815C22.1944 0.581787 25.9709 1.47391 28.4111 3.25815C30.8513 5.0424 32.0714 7.79633 32.0714 11.52V13.6727C32.0714 16.0388 31.5098 17.8618 30.3865 19.1418C29.302 20.4218 27.6171 21.2557 25.3318 21.6436V23.3309C27.9269 23.6024 29.9411 24.5333 31.3742 26.1236C32.8074 27.6751 33.524 29.6533 33.524 32.0582V34.9672C33.524 39.1175 32.1876 42.1818 29.515 44.16C26.8424 46.1382 22.6979 47.1272 17.0815 47.1272H0ZM9.87708 19.5491H16.4424C18.534 19.5491 20.0253 19.2 20.9162 18.5018C21.8458 17.7648 22.3106 16.5624 22.3106 14.8945V12.4509C22.3106 10.783 21.8458 9.59997 20.9162 8.90179C20.0253 8.20361 18.534 7.85452 16.4424 7.85452H9.87708V19.5491ZM9.87708 39.8545H16.6167C19.1731 39.8545 20.9743 39.4472 22.0201 38.6327C23.1046 37.7794 23.6469 36.3636 23.6469 34.3854V31.7091C23.6469 29.7697 23.1046 28.3927 22.0201 27.5782C20.9743 26.7248 19.1731 26.2982 16.6167 26.2982H9.87708V39.8545Z" fill="black"/>
</g>
<defs>
<clipPath id="clip0_10945_175">
<rect width="340" height="47" fill="white"/>
</clipPath>
</defs>
</svg>
