<svg  preserveAspectRatio="none" width="340" height="47" viewBox="0 0 340 47" fill="none" xmlns="http://www.w3.org/2000/svg">
<g clip-path="url(#clip0_10945_175)">
<path d="M316.818 -0.127243V38.7382H303.513V46.4182H340V38.7382H326.695V-0.127243H316.818Z" fill="black"/>
<path d="M281.063 -0.709091C275.524 -0.709091 271.321 0.629091 268.455 3.30545C265.589 6.02061 264.156 9.84121 264.156 14.7673V31.2909C264.156 36.2558 265.589 40.1152 268.455 42.8691C271.36 45.623 275.582 47 281.121 47C286.66 47 290.843 45.623 293.671 42.8691C296.537 40.1152 297.97 36.2558 297.97 31.2909V14.7673C297.97 9.84121 296.537 6.02061 293.671 3.30545C290.804 0.629091 286.602 -0.709091 281.063 -0.709091ZM281.063 6.97091C283.581 6.97091 285.382 7.61091 286.466 8.89091C287.551 10.2097 288.093 12.44 288.093 15.5818V30.4764C288.093 33.6182 287.551 35.8679 286.466 37.2255C285.382 38.6218 283.581 39.32 281.063 39.32C278.545 39.32 276.744 38.6218 275.66 37.2255C274.575 35.8679 274.033 33.6182 274.033 30.4764V15.5818C274.033 12.44 274.575 10.2097 275.66 8.89091C276.744 7.61091 278.545 6.97091 281.063 6.97091Z" fill="black"/>
<path d="M240.37 -0.709091C234.831 -0.709091 230.629 0.629091 227.762 3.30545C224.896 6.02061 223.463 9.84121 223.463 14.7673V31.2909C223.463 36.2558 224.896 40.1152 227.762 42.8691C230.667 45.623 234.889 47 240.428 47C245.967 47 250.15 45.623 252.978 42.8691C255.844 40.1152 257.277 36.2558 257.277 31.2909V14.7673C257.277 9.84121 255.844 6.02061 252.978 3.30545C250.112 0.629091 245.909 -0.709091 240.37 -0.709091ZM240.37 6.97091C242.888 6.97091 244.689 7.61091 245.773 8.89091C246.858 10.2097 247.4 12.44 247.4 15.5818V30.4764C247.4 33.6182 246.858 35.8679 245.773 37.2255C244.689 38.6218 242.888 39.32 240.37 39.32C237.852 39.32 236.051 38.6218 234.967 37.2255C233.882 35.8679 233.34 33.6182 233.34 30.4764V15.5818C233.34 12.44 233.882 10.2097 234.967 8.89091C236.051 7.61091 237.852 6.97091 240.37 6.97091Z" fill="black"/>
<path d="M192.996 24.3091H200.549C203.028 24.3091 204.751 24.7164 205.72 25.5309C206.727 26.3843 207.23 27.8582 207.23 29.9528V33.2691C207.23 35.2473 206.727 36.6437 205.72 37.4582C204.751 38.3115 203.028 38.7382 200.549 38.7382H192.996V24.3091ZM192.996 -0.127243H183.119V46.4182H201.827C206.901 46.4182 210.639 45.3322 213.04 43.16C215.481 41.0267 216.701 37.8849 216.701 33.7346V29.72C216.701 26.3455 215.945 23.6303 214.435 21.5746C212.963 19.5576 210.716 18.1806 207.695 17.4437L218.037 -0.127243H207.579L197.702 16.6873H192.996V-0.127243Z" fill="black"/>
<path d="M122.079 -0.127243V46.4182H138.173C143.596 46.4182 147.837 44.8667 150.897 41.7637C153.996 38.6994 155.545 34.6073 155.545 29.4873V16.5709C155.545 11.4897 153.996 7.43639 150.897 4.41094C147.837 1.38548 143.576 -0.127243 138.115 -0.127243H122.079ZM131.956 7.55276H137.301C140.323 7.55276 142.472 8.32851 143.751 9.88003C145.029 11.4315 145.668 13.9334 145.668 17.3855V28.6728C145.668 32.1637 145.029 34.7043 143.751 36.2946C142.472 37.9237 140.323 38.7382 137.301 38.7382H131.956V7.55276Z" fill="black"/>
<path d="M102.999 18.8982L98.1189 38.5637L92.8899 18.8982H102.999ZM107.764 -0.127243L104.917 11.2182H90.8564L87.8351 -0.127243H78.7134L92.0765 46.4182H103.871L117.234 -0.127243H107.764Z" fill="black"/>
<path d="M50.5699 24.3091H58.123C60.602 24.3091 62.3256 24.7164 63.2939 25.5309C64.301 26.3843 64.8046 27.8582 64.8046 29.9528V33.2691C64.8046 35.2473 64.301 36.6437 63.2939 37.4582C62.3256 38.3115 60.602 38.7382 58.123 38.7382H50.5699V24.3091ZM50.5699 -0.127243H40.6929V46.4182H59.4012C64.4753 46.4182 68.2131 45.3322 70.6146 43.16C73.0548 41.0267 74.2749 37.8849 74.2749 33.7346V29.72C74.2749 26.3455 73.5196 23.6303 72.009 21.5746C70.5371 19.5576 68.2906 18.1806 65.2694 17.4437L75.6112 -0.127243H65.1532L55.2761 16.6873H50.5699V-0.127243Z" fill="black"/>
<path d="M0 -0.127243V46.4182H17.0815C22.1944 46.4182 25.9709 45.5261 28.4111 43.7418C30.8513 41.9576 32.0714 39.2037 32.0714 35.48V33.3273C32.0714 30.9612 31.5098 29.1382 30.3865 27.8582C29.302 26.5782 27.6171 25.7443 25.3318 25.3564V23.6691C27.9269 23.3976 29.9411 22.4667 31.3742 20.8764C32.8074 19.3249 33.524 17.3467 33.524 14.9418V12.0328C33.524 7.88245 32.1876 4.81821 29.515 2.84003C26.8424 0.861849 22.6979 -0.127243 17.0815 -0.127243H0ZM9.87708 27.4509H16.4424C18.534 27.4509 20.0253 27.8 20.9162 28.4982C21.8458 29.2352 22.3106 30.4376 22.3106 32.1055V34.5491C22.3106 36.217 21.8458 37.4 20.9162 38.0982C20.0253 38.7964 18.534 39.1455 16.4424 39.1455H9.87708V27.4509ZM9.87708 7.14548H16.6167C19.1731 7.14548 20.9743 7.55276 22.0201 8.3673C23.1046 9.22064 23.6469 10.6364 23.6469 12.6146V15.2909C23.6469 17.2303 23.1046 18.6073 22.0201 19.4218C20.9743 20.2752 19.1731 20.7018 16.6167 20.7018H9.87708V7.14548Z" fill="black"/>
</g>
<defs>
<clipPath id="clip0_10945_175">
<rect width="340" height="47" fill="white" transform="matrix(1 0 0 -1 0 47)"/>
</clipPath>
</defs>
</svg>
