<svg preserveAspectRatio="none" width="340" height="47" viewBox="0 0 340 47" fill="none" xmlns="http://www.w3.org/2000/svg">
<g clip-path="url(#clip0_10945_175)">
<path d="M240.776 47.1272V8.26179H227.453V0.581787H263.991V8.26179H250.667V47.1272H240.776Z" fill="black"/>
<path d="M212.593 28.1018L207.706 8.43633L202.47 28.1018H212.593ZM217.364 47.1272L214.513 35.7818H200.433L197.408 47.1272H188.273L201.655 0.581787H213.466L226.848 47.1272H217.364Z" fill="black"/>
<path d="M152.76 47.1272V0.581787H186.272V8.26179H162.651V18.3854H183.363V26.0654H162.651V39.4472H186.272V47.1272H152.76Z" fill="black"/>
<path d="M114.57 47.1272V0.581787H131.675C136.795 0.581787 140.577 1.47391 143.021 3.25815C145.464 5.0424 146.686 7.79633 146.686 11.52V13.6727C146.686 16.0388 146.124 17.8618 144.999 19.1418C143.913 20.4218 142.226 21.2557 139.937 21.6436V23.3309C142.536 23.6024 144.553 24.5333 145.988 26.1236C147.423 27.6751 148.141 29.6533 148.141 32.0582V34.9672C148.141 39.1175 146.803 42.1818 144.126 44.16C141.45 46.1382 137.3 47.1272 131.675 47.1272H114.57ZM124.461 19.5491H131.035C133.13 19.5491 134.623 19.2 135.515 18.5018C136.446 17.7648 136.912 16.5624 136.912 14.8945V12.4509C136.912 10.783 136.446 9.59997 135.515 8.90179C134.623 8.20361 133.13 7.85452 131.035 7.85452H124.461V19.5491ZM124.461 39.8545H131.21C133.77 39.8545 135.573 39.4472 136.621 38.6327C137.707 37.7794 138.25 36.3636 138.25 34.3854V31.7091C138.25 29.7697 137.707 28.3927 136.621 27.5782C135.573 26.7248 133.77 26.2982 131.21 26.2982H124.461V39.8545Z" fill="black"/>
<path d="M88.0165 47.1272V8.26179H74.6929V0.581787H111.231V8.26179H97.9074V47.1272H88.0165Z" fill="black"/>
<path d="M54.7717 47.7091C49.2251 47.7091 45.0166 46.3709 42.1463 43.6945C39.276 40.9794 37.8408 37.1588 37.8408 32.2327V15.7091C37.8408 10.7442 39.276 6.88485 42.1463 4.13091C45.0554 1.37697 49.2832 0 54.8299 0C60.3766 0 64.5657 1.37697 67.3972 4.13091C70.2675 6.88485 71.7026 10.7442 71.7026 15.7091V32.2327C71.7026 37.1588 70.2675 40.9794 67.3972 43.6945C64.5269 46.3709 60.3184 47.7091 54.7717 47.7091ZM54.7717 40.0291C57.2929 40.0291 59.0966 39.3891 60.1826 38.1091C61.2687 36.7903 61.8117 34.56 61.8117 31.4182V16.5236C61.8117 13.3818 61.2687 11.1321 60.1826 9.77455C59.0966 8.37818 57.2929 7.68 54.7717 7.68C52.2505 7.68 50.4469 8.37818 49.3608 9.77455C48.2748 11.1321 47.7317 13.3818 47.7317 16.5236V31.4182C47.7317 34.56 48.2748 36.7903 49.3608 38.1091C50.4469 39.3891 52.2505 40.0291 54.7717 40.0291Z" fill="black"/>
<path d="M0 47.1272V0.581787H16.1164C21.5467 0.581787 25.7939 2.1333 28.8582 5.23633C31.9612 8.30058 33.5127 12.3927 33.5127 17.5127V30.4291C33.5127 35.5103 31.9612 39.5636 28.8582 42.5891C25.7939 45.6145 21.5273 47.1272 16.0582 47.1272H0ZM9.89091 39.4472H15.2436C18.2691 39.4472 20.4218 38.6715 21.7018 37.12C22.9818 35.5685 23.6218 33.0666 23.6218 29.6145V18.3272C23.6218 14.8363 22.9818 12.2957 21.7018 10.7054C20.4218 9.07633 18.2691 8.26179 15.2436 8.26179H9.89091V39.4472Z" fill="black"/>
</g>
<defs>
<clipPath id="clip0_10945_175">
<rect width="340" height="47" fill="white" transform="matrix(1 0 0 -1 0 47)"/>
</clipPath>
</defs>
</svg>
