<svg preserveAspectRatio="none" width="340" height="47" viewBox="0 0 340 47" fill="none" xmlns="http://www.w3.org/2000/svg">
<g clip-path="url(#clip0_10945_175)">
<path d="M240.776 -0.127243V38.7382H227.453V46.4182H263.991V38.7382H250.667V-0.127243H240.776Z" fill="black"/>
<path d="M212.593 18.8982L207.706 38.5637L202.47 18.8982H212.593ZM217.364 -0.127243L214.513 11.2182H200.433L197.408 -0.127243H188.273L201.655 46.4182H213.466L226.848 -0.127243H217.364Z" fill="black"/>
<path d="M152.76 -0.127243V46.4182H186.272V38.7382H162.651V28.6146H183.363V20.9346H162.651V7.55276H186.272V-0.127243H152.76Z" fill="black"/>
<path d="M114.57 -0.127243V46.4182H131.675C136.795 46.4182 140.577 45.5261 143.021 43.7418C145.464 41.9576 146.686 39.2037 146.686 35.48V33.3273C146.686 30.9612 146.124 29.1382 144.999 27.8582C143.913 26.5782 142.226 25.7443 139.937 25.3564V23.6691C142.536 23.3976 144.553 22.4667 145.988 20.8764C147.423 19.3249 148.141 17.3467 148.141 14.9418V12.0328C148.141 7.88245 146.803 4.81821 144.126 2.84003C141.45 0.861849 137.3 -0.127243 131.675 -0.127243H114.57ZM124.461 27.4509H131.035C133.13 27.4509 134.623 27.8 135.515 28.4982C136.446 29.2352 136.912 30.4376 136.912 32.1055V34.5491C136.912 36.217 136.446 37.4 135.515 38.0982C134.623 38.7964 133.13 39.1455 131.035 39.1455H124.461V27.4509ZM124.461 7.14548H131.21C133.77 7.14548 135.573 7.55276 136.621 8.3673C137.707 9.22064 138.25 10.6364 138.25 12.6146V15.2909C138.25 17.2303 137.707 18.6073 136.621 19.4218C135.573 20.2752 133.77 20.7018 131.21 20.7018H124.461V7.14548Z" fill="black"/>
<path d="M88.0165 -0.127243V38.7382H74.6929V46.4182H111.231V38.7382H97.9074V-0.127243H88.0165Z" fill="black"/>
<path d="M54.7717 -0.709091C49.2251 -0.709091 45.0166 0.629091 42.1463 3.30545C39.276 6.02061 37.8408 9.84121 37.8408 14.7673V31.2909C37.8408 36.2558 39.276 40.1152 42.1463 42.8691C45.0554 45.623 49.2832 47 54.8299 47C60.3766 47 64.5657 45.623 67.3972 42.8691C70.2675 40.1152 71.7026 36.2558 71.7026 31.2909V14.7673C71.7026 9.84121 70.2675 6.02061 67.3972 3.30545C64.5269 0.629091 60.3184 -0.709091 54.7717 -0.709091ZM54.7717 6.97091C57.2929 6.97091 59.0966 7.61091 60.1826 8.89091C61.2687 10.2097 61.8117 12.44 61.8117 15.5818V30.4764C61.8117 33.6182 61.2687 35.8679 60.1826 37.2255C59.0966 38.6218 57.2929 39.32 54.7717 39.32C52.2505 39.32 50.4469 38.6218 49.3608 37.2255C48.2748 35.8679 47.7317 33.6182 47.7317 30.4764V15.5818C47.7317 12.44 48.2748 10.2097 49.3608 8.89091C50.4469 7.61091 52.2505 6.97091 54.7717 6.97091Z" fill="black"/>
<path d="M0 -0.127243V46.4182H16.1164C21.5467 46.4182 25.7939 44.8667 28.8582 41.7637C31.9612 38.6994 33.5127 34.6073 33.5127 29.4873V16.5709C33.5127 11.4897 31.9612 7.43639 28.8582 4.41094C25.7939 1.38548 21.5273 -0.127243 16.0582 -0.127243H0ZM9.89091 7.55276H15.2436C18.2691 7.55276 20.4218 8.32851 21.7018 9.88003C22.9818 11.4315 23.6218 13.9334 23.6218 17.3855V28.6728C23.6218 32.1637 22.9818 34.7043 21.7018 36.2946C20.4218 37.9237 18.2691 38.7382 15.2436 38.7382H9.89091V7.55276Z" fill="black"/>
</g>
<defs>
<clipPath id="clip0_10945_175">
<rect width="340" height="47" fill="white"/>
</clipPath>
</defs>
</svg>
