<svg preserveAspectRatio="none" width="340" height="47" viewBox="0 0 340 47" fill="none" xmlns="http://www.w3.org/2000/svg">
<path d="M224.928 47L212.245 13.8364V47H203.75V0.45459H214.979L228.419 35.5964V0.45459H236.914V47H224.928Z" fill="black"/>
<path d="M163 47V39.32H174.636V8.13459H163V0.45459H196.164V8.13459H184.527V39.32H196.164V47H163Z" fill="black"/>
<path d="M143.894 27.9746L139.006 8.30914L133.77 27.9746H143.894ZM148.665 47L145.814 35.6546H131.734L128.708 47H119.574L132.956 0.45459H144.766L158.148 47H148.665Z" fill="black"/>
<path d="M84.4092 47V0.45459H94.3001V39.32H114.664V47H84.4092Z" fill="black"/>
<path d="M62.3937 27.9746L57.5065 8.30914L52.2701 27.9746H62.3937ZM67.1646 47L64.3137 35.6546H50.2337L47.2083 47H38.0737L51.4556 0.45459H63.2665L76.6483 47H67.1646Z" fill="black"/>
<path d="M0 47V0.45459H33.5127V8.13459H9.89091V18.2582H30.6036V25.9382H9.89091V39.32H33.5127V47H0Z" fill="black"/>
</svg>
