<svg preserveAspectRatio="none" width="340" height="47" viewBox="0 0 340 47" fill="none" xmlns="http://www.w3.org/2000/svg">
<path d="M224.928 -4.57764e-05L212.245 33.1636V-4.57764e-05H203.75V46.5454H214.979L228.419 11.4036V46.5454H236.914V-4.57764e-05H224.928Z" fill="black"/>
<path d="M163 -4.57764e-05V7.67995H174.636V38.8654H163V46.5454H196.164V38.8654H184.527V7.67995H196.164V-4.57764e-05H163Z" fill="black"/>
<path d="M143.894 19.0254L139.006 38.6909L133.77 19.0254H143.894ZM148.665 -4.57764e-05L145.814 11.3454H131.734L128.708 -4.57764e-05H119.574L132.956 46.5454H144.766L158.148 -4.57764e-05H148.665Z" fill="black"/>
<path d="M84.4092 -4.57764e-05V46.5454H94.3001V7.67995H114.664V-4.57764e-05H84.4092Z" fill="black"/>
<path d="M62.3937 19.0254L57.5065 38.6909L52.2701 19.0254H62.3937ZM67.1646 -4.57764e-05L64.3137 11.3454H50.2337L47.2083 -4.57764e-05H38.0737L51.4556 46.5454H63.2665L76.6483 -4.57764e-05H67.1646Z" fill="black"/>
<path d="M0 -4.57764e-05V46.5454H33.5127V38.8654H9.89091V28.7418H30.6036V21.0618H9.89091V7.67995H33.5127V-4.57764e-05H0Z" fill="black"/>
</svg>
