<svg preserveAspectRatio="none" width="340" height="47" viewBox="0 0 340 47" fill="none" xmlns="http://www.w3.org/2000/svg">
<g clip-path="url(#clip0_10945_175)">
<path d="M324.964 -4.57764e-05V46.5454H358.477V38.8654H334.855V28.7418H355.568V21.0618H334.855V7.67995H358.477V-4.57764e-05H324.964Z" fill="black"/>
<path d="M277.57 20.3054V-4.57764e-05H267.679V46.5454H277.57V27.9854H279.781L292.93 46.5454H303.286L287.345 25.0763L303.112 -4.57764e-05H292.814L279.956 20.3054H277.57Z" fill="black"/>
<path d="M246.071 -0.581894C240.524 -0.581894 236.316 0.756288 233.446 3.43265C230.575 6.1478 229.14 9.96841 229.14 14.8945V31.4181C229.14 36.383 230.575 40.2423 233.446 42.9963C236.355 45.7502 240.583 47.1272 246.129 47.1272C251.676 47.1272 255.865 45.7502 258.697 42.9963C261.567 40.2423 263.002 36.383 263.002 31.4181V14.8945C263.002 9.96841 261.567 6.1478 258.697 3.43265C255.826 0.756288 251.618 -0.581894 246.071 -0.581894ZM246.071 7.09811C248.592 7.09811 250.396 7.7381 251.482 9.0181C252.568 10.3369 253.111 12.5672 253.111 15.709V30.6036C253.111 33.7454 252.568 35.9951 251.482 37.3526C250.396 38.749 248.592 39.4472 246.071 39.4472C243.55 39.4472 241.746 38.749 240.66 37.3526C239.574 35.9951 239.031 33.7454 239.031 30.6036V15.709C239.031 12.5672 239.574 10.3369 240.66 9.0181C241.746 7.7381 243.55 7.09811 246.071 7.09811Z" fill="black"/>
<path d="M207.881 -0.581894C202.334 -0.581894 198.126 0.756288 195.256 3.43265C192.385 6.1478 190.95 9.96841 190.95 14.8945V31.4181C190.95 36.383 192.385 40.2423 195.256 42.9963C198.165 45.7502 202.393 47.1272 207.939 47.1272C213.486 47.1272 217.675 45.7502 220.507 42.9963C223.377 40.2423 224.812 36.383 224.812 31.4181V14.8945C224.812 9.96841 223.377 6.1478 220.507 3.43265C217.636 0.756288 213.428 -0.581894 207.881 -0.581894ZM207.881 7.09811C210.402 7.09811 212.206 7.7381 213.292 9.0181C214.378 10.3369 214.921 12.5672 214.921 15.709V30.6036C214.921 33.7454 214.378 35.9951 213.292 37.3526C212.206 38.749 210.402 39.4472 207.881 39.4472C205.36 39.4472 203.556 38.749 202.47 37.3526C201.384 35.9951 200.841 33.7454 200.841 30.6036V15.709C200.841 12.5672 201.384 10.3369 202.47 9.0181C203.556 7.7381 205.36 7.09811 207.881 7.09811Z" fill="black"/>
<path d="M153.109 -4.57764e-05V46.5454H170.214C175.334 46.5454 179.116 45.6533 181.56 43.869C184.003 42.0848 185.225 39.3309 185.225 35.6072V33.4545C185.225 31.0884 184.663 29.2654 183.538 27.9854C182.452 26.7054 180.765 25.8715 178.476 25.4836V23.7963C181.075 23.5248 183.092 22.5939 184.527 21.0036C185.962 19.4521 186.68 17.4739 186.68 15.069V12.16C186.68 8.00965 185.342 4.94541 182.665 2.96723C179.989 0.989046 175.839 -4.57764e-05 170.214 -4.57764e-05H153.109ZM163 27.5781H169.574C171.669 27.5781 173.162 27.9272 174.054 28.6254C174.985 29.3624 175.451 30.5648 175.451 32.2327V34.6763C175.451 36.3442 174.985 37.5272 174.054 38.2254C173.162 38.9236 171.669 39.2727 169.574 39.2727H163V27.5781ZM163 7.27268H169.749C172.309 7.27268 174.113 7.67995 175.16 8.4945C176.246 9.34783 176.789 10.7636 176.789 12.7418V15.4181C176.789 17.3575 176.246 18.7345 175.16 19.549C174.113 20.4024 172.309 20.829 169.749 20.829H163V7.27268Z" fill="black"/>
<path d="M114.919 -4.57764e-05V46.5454H148.432V38.8654H124.81V28.7418H145.523V21.0618H124.81V7.67995H148.432V-4.57764e-05H114.919Z" fill="black"/>
<path d="M89.9365 13.6727L83.5947 31.9418L84.5256 -4.57764e-05H75.7983V46.5454H85.6893L93.4856 23.0981L101.224 46.5454H110.824V-4.57764e-05H102.155L102.969 31.709L96.7438 13.6727H89.9365Z" fill="black"/>
<path d="M60.1828 19.0254L55.2955 38.6909L50.0592 19.0254H60.1828ZM64.9537 -4.57764e-05L62.1028 11.3454H48.0228L44.9973 -4.57764e-05H35.8628L49.2446 46.5454H61.0555L74.4373 -4.57764e-05H64.9537Z" fill="black"/>
<path d="M17.3382 -0.581894C11.7915 -0.581894 7.50545 0.814469 4.48 3.6072C1.49333 6.43871 0 10.4727 0 15.709V30.6036C0 35.9175 1.47394 39.9902 4.42182 42.8217C7.3697 45.692 11.617 47.1272 17.1636 47.1272C22.5552 47.1272 26.6085 45.8666 29.3236 43.3454C32.0776 40.863 33.5903 37.2557 33.8618 32.5236L23.9709 31.9417C23.7382 34.7345 23.1176 36.6739 22.1091 37.7599C21.1006 38.8848 19.4715 39.4472 17.2218 39.4472C14.5455 39.4472 12.6448 38.7296 11.52 37.2945C10.4339 35.8981 9.89091 33.3963 9.89091 29.789V16.5236C9.89091 13.0327 10.4339 10.589 11.52 9.19265C12.6448 7.79629 14.5648 7.09811 17.28 7.09811C19.9176 7.09811 21.76 7.79629 22.8073 9.19265C23.8545 10.6278 24.3588 13.149 24.32 16.7563H16.9309V24.4363H34.2109V15.8836C34.2109 10.5696 32.7564 6.49689 29.8473 3.66538C26.9382 0.833863 22.7685 -0.581894 17.3382 -0.581894Z" fill="black"/>
</g>
<defs>
<clipPath id="clip0_10945_175">
<rect width="340" height="47" fill="white" transform="matrix(1 0 0 -1 0 47)"/>
</clipPath>
</defs>
</svg>
