<svg preserveAspectRatio="none" width="340" height="47" viewBox="0 0 340 47" fill="none" xmlns="http://www.w3.org/2000/svg">
<g clip-path="url(#clip0_10945_175)">
<path d="M324.964 47V0.45459H358.477V8.13459H334.855V18.2582H355.568V25.9382H334.855V39.32H358.477V47H324.964Z" fill="black"/>
<path d="M277.57 26.6946V47H267.679V0.45459H277.57V19.0146H279.781L292.93 0.45459H303.286L287.345 21.9237L303.112 47H292.814L279.956 26.6946H277.57Z" fill="black"/>
<path d="M246.071 47.5819C240.524 47.5819 236.316 46.2437 233.446 43.5673C230.575 40.8522 229.14 37.0316 229.14 32.1055V15.5819C229.14 10.617 230.575 6.75765 233.446 4.00371C236.355 1.24977 240.583 -0.127197 246.129 -0.127197C251.676 -0.127197 255.865 1.24977 258.697 4.00371C261.567 6.75765 263.002 10.617 263.002 15.5819V32.1055C263.002 37.0316 261.567 40.8522 258.697 43.5673C255.826 46.2437 251.618 47.5819 246.071 47.5819ZM246.071 39.9019C248.592 39.9019 250.396 39.2619 251.482 37.9819C252.568 36.6631 253.111 34.4328 253.111 31.291V16.3964C253.111 13.2546 252.568 11.0049 251.482 9.64735C250.396 8.25099 248.592 7.5528 246.071 7.5528C243.55 7.5528 241.746 8.25099 240.66 9.64735C239.574 11.0049 239.031 13.2546 239.031 16.3964V31.291C239.031 34.4328 239.574 36.6631 240.66 37.9819C241.746 39.2619 243.55 39.9019 246.071 39.9019Z" fill="black"/>
<path d="M207.881 47.5819C202.334 47.5819 198.126 46.2437 195.256 43.5673C192.385 40.8522 190.95 37.0316 190.95 32.1055V15.5819C190.95 10.617 192.385 6.75765 195.256 4.00371C198.165 1.24977 202.393 -0.127197 207.939 -0.127197C213.486 -0.127197 217.675 1.24977 220.507 4.00371C223.377 6.75765 224.812 10.617 224.812 15.5819V32.1055C224.812 37.0316 223.377 40.8522 220.507 43.5673C217.636 46.2437 213.428 47.5819 207.881 47.5819ZM207.881 39.9019C210.402 39.9019 212.206 39.2619 213.292 37.9819C214.378 36.6631 214.921 34.4328 214.921 31.291V16.3964C214.921 13.2546 214.378 11.0049 213.292 9.64735C212.206 8.25099 210.402 7.5528 207.881 7.5528C205.36 7.5528 203.556 8.25099 202.47 9.64735C201.384 11.0049 200.841 13.2546 200.841 16.3964V31.291C200.841 34.4328 201.384 36.6631 202.47 37.9819C203.556 39.2619 205.36 39.9019 207.881 39.9019Z" fill="black"/>
<path d="M153.109 47V0.45459H170.214C175.334 0.45459 179.116 1.34671 181.56 3.13095C184.003 4.9152 185.225 7.66914 185.225 11.3928V13.5455C185.225 15.9116 184.663 17.7346 183.538 19.0146C182.452 20.2946 180.765 21.1285 178.476 21.5164V23.2037C181.075 23.4752 183.092 24.4061 184.527 25.9964C185.962 27.5479 186.68 29.5261 186.68 31.931V34.84C186.68 38.9903 185.342 42.0546 182.665 44.0328C179.989 46.011 175.839 47 170.214 47H153.109ZM163 19.4219H169.574C171.669 19.4219 173.162 19.0728 174.054 18.3746C174.985 17.6376 175.451 16.4352 175.451 14.7673V12.3237C175.451 10.6558 174.985 9.47277 174.054 8.77459C173.162 8.07641 171.669 7.72732 169.574 7.72732H163V19.4219ZM163 39.7273H169.749C172.309 39.7273 174.113 39.32 175.16 38.5055C176.246 37.6522 176.789 36.2364 176.789 34.2582V31.5819C176.789 29.6425 176.246 28.2655 175.16 27.451C174.113 26.5976 172.309 26.171 169.749 26.171H163V39.7273Z" fill="black"/>
<path d="M114.919 47V0.45459H148.432V8.13459H124.81V18.2582H145.523V25.9382H124.81V39.32H148.432V47H114.919Z" fill="black"/>
<path d="M89.9365 33.3273L83.5947 15.0582L84.5256 47H75.7983V0.45459H85.6893L93.4856 23.9019L101.224 0.45459H110.824V47H102.155L102.969 15.291L96.7438 33.3273H89.9365Z" fill="black"/>
<path d="M60.1828 27.9746L55.2955 8.30914L50.0592 27.9746H60.1828ZM64.9537 47L62.1028 35.6546H48.0228L44.9973 47H35.8628L49.2446 0.45459H61.0555L74.4373 47H64.9537Z" fill="black"/>
<path d="M17.3382 47.5819C11.7915 47.5819 7.50545 46.1855 4.48 43.3928C1.49333 40.5613 0 36.5273 0 31.291V16.3964C0 11.0825 1.47394 7.00977 4.42182 4.17826C7.3697 1.30795 11.617 -0.127197 17.1636 -0.127197C22.5552 -0.127197 26.6085 1.13341 29.3236 3.65462C32.0776 6.13705 33.5903 9.74432 33.8618 14.4764L23.9709 15.0583C23.7382 12.2655 23.1176 10.3261 22.1091 9.24007C21.1006 8.11523 19.4715 7.5528 17.2218 7.5528C14.5455 7.5528 12.6448 8.27038 11.52 9.70553C10.4339 11.1019 9.89091 13.6037 9.89091 17.211V30.4764C9.89091 33.9673 10.4339 36.411 11.52 37.8074C12.6448 39.2037 14.5648 39.9019 17.28 39.9019C19.9176 39.9019 21.76 39.2037 22.8073 37.8074C23.8545 36.3722 24.3588 33.851 24.32 30.2437H16.9309V22.5637H34.2109V31.1164C34.2109 36.4304 32.7564 40.5031 29.8473 43.3346C26.9382 46.1661 22.7685 47.5819 17.3382 47.5819Z" fill="black"/>
</g>
<defs>
<clipPath id="clip0_10945_175">
<rect width="340" height="47" fill="white"/>
</clipPath>
</defs>
</svg>
