<svg width="340" height="47" viewBox="0 0 340 47" fill="none" xmlns="http://www.w3.org/2000/svg" preserveAspectRatio="none">
<path d="M206.659 -1.40071e-06V47H216.55V7.755H236.914V-1.40071e-06H206.659Z" fill="black"/>
<path d="M184.644 19.2112L179.756 39.0687L174.52 19.2112H184.644ZM189.415 -1.40071e-06L186.564 11.4562H172.484L169.458 -1.40071e-06H160.324L173.706 47H185.516L198.898 -1.40071e-06H189.415Z" fill="black"/>
<path d="M122.25 -1.40071e-06V47H155.763V39.245H132.141V29.0225H152.854V21.2675H132.141V7.755H155.763V-1.40071e-06H122.25Z" fill="black"/>
<path d="M102.678 -1.40071e-06L89.9946 33.4875V-1.40071e-06H81.5V47H92.7291L106.169 11.515V47H114.664V-1.40071e-06H102.678Z" fill="black"/>
<path d="M61.9282 -1.40071e-06L49.2445 33.4875V-1.40071e-06H40.75V47H51.9791L65.4191 11.515V47H73.9136V-1.40071e-06H61.9282Z" fill="black"/>
<path d="M0 -1.40071e-06V7.755H11.6364V39.245H0V47H33.1636V39.245H21.5273V7.755H33.1636V-1.40071e-06H0Z" fill="black"/>
</svg>
