<svg  preserveAspectRatio="none" width="340" height="47" viewBox="0 0 340 47" fill="none" xmlns="http://www.w3.org/2000/svg">
<path d="M206.659 47V0.45459H216.55V39.32H236.914V47H206.659Z" fill="black"/>
<path d="M184.644 27.9746L179.756 8.30914L174.52 27.9746H184.644ZM189.415 47L186.564 35.6546H172.484L169.458 47H160.324L173.706 0.45459H185.516L198.898 47H189.415Z" fill="black"/>
<path d="M122.25 47V0.45459H155.763V8.13459H132.141V18.2582H152.854V25.9382H132.141V39.32H155.763V47H122.25Z" fill="black"/>
<path d="M102.678 47L89.9946 13.8364V47H81.5V0.45459H92.7291L106.169 35.5964V0.45459H114.664V47H102.678Z" fill="black"/>
<path d="M61.9282 47L49.2445 13.8364V47H40.75V0.45459H51.9791L65.4191 35.5964V0.45459H73.9136V47H61.9282Z" fill="black"/>
<path d="M0 47V39.32H11.6364V8.13459H0V0.45459H33.1636V8.13459H21.5273V39.32H33.1636V47H0Z" fill="black"/>
</svg>
