<svg  preserveAspectRatio="none" width="340" height="47" viewBox="0 0 340 47" fill="none" xmlns="http://www.w3.org/2000/svg">
<path d="M206.659 -4.57764e-05V46.5454H216.55V7.67995H236.914V-4.57764e-05H206.659Z" fill="black"/>
<path d="M184.644 19.0254L179.756 38.6909L174.52 19.0254H184.644ZM189.415 -4.57764e-05L186.564 11.3454H172.484L169.458 -4.57764e-05H160.324L173.706 46.5454H185.516L198.898 -4.57764e-05H189.415Z" fill="black"/>
<path d="M122.25 -4.57764e-05V46.5454H155.763V38.8654H132.141V28.7418H152.854V21.0618H132.141V7.67995H155.763V-4.57764e-05H122.25Z" fill="black"/>
<path d="M102.678 -4.57764e-05L89.9946 33.1636V-4.57764e-05H81.5V46.5454H92.7291L106.169 11.4036V46.5454H114.664V-4.57764e-05H102.678Z" fill="black"/>
<path d="M61.9282 -4.57764e-05L49.2445 33.1636V-4.57764e-05H40.75V46.5454H51.9791L65.4191 11.4036V46.5454H73.9136V-4.57764e-05H61.9282Z" fill="black"/>
<path d="M0 -4.57764e-05V7.67995H11.6364V38.8654H0V46.5454H33.1636V38.8654H21.5273V7.67995H33.1636V-4.57764e-05H0Z" fill="black"/>
</svg>
