<svg width="340" height="47" viewBox="0 0 340 47" fill="none" xmlns="http://www.w3.org/2000/svg">
<path d="M206.659 47V0H216.55V39.245H236.914V47H206.659Z" fill="black"/>
<path d="M184.644 27.7888L179.756 7.93125L174.52 27.7888H184.644ZM189.415 47L186.564 35.5438H172.484L169.458 47H160.324L173.706 0H185.516L198.898 47H189.415Z" fill="black"/>
<path d="M122.25 47V0H155.763V7.755H132.141V17.9775H152.854V25.7325H132.141V39.245H155.763V47H122.25Z" fill="black"/>
<path d="M102.678 47L89.9946 13.5125V47H81.5V0H92.7291L106.169 35.485V0H114.664V47H102.678Z" fill="black"/>
<path d="M61.9282 47L49.2445 13.5125V47H40.75V0H51.9791L65.4191 35.485V0H73.9136V47H61.9282Z" fill="black"/>
<path d="M0 47V39.245H11.6364V7.755H0V0H33.1636V7.755H21.5273V39.245H33.1636V47H0Z" fill="black"/>
</svg>
