<svg preserveAspectRatio="none" width="340" height="47" viewBox="0 0 340 47" fill="none" xmlns="http://www.w3.org/2000/svg">
<g clip-path="url(#clip0_10945_175)">
<path d="M331.597 24.4253H339.161C341.643 24.4253 343.369 24.8326 344.339 25.6471C345.347 26.5005 345.852 27.9744 345.852 30.069V33.3853C345.852 35.3635 345.347 36.7599 344.339 37.5744C343.369 38.4278 341.643 38.8544 339.161 38.8544H331.597V24.4253ZM331.597 -0.0110321H321.706V46.5344H340.441C345.522 46.5344 349.265 45.4484 351.67 43.2762C354.113 41.1429 355.335 38.0011 355.335 33.8508V29.8362C355.335 26.4617 354.579 23.7465 353.066 21.6908C351.592 19.6738 349.342 18.2968 346.317 17.5599L356.673 -0.0110321H346.201L336.31 16.8035H331.597V-0.0110321Z" fill="black"/>
<path d="M283.516 -0.0110321V46.5344H317.029V38.8544H293.407V28.7308H314.12V21.0508H293.407V7.66897H317.029V-0.0110321H283.516Z" fill="black"/>
<path d="M268.249 -0.0110321H255.624L242.649 46.5344H252.599L261.908 7.95988L271.682 46.5344H281.224L268.249 -0.0110321Z" fill="black"/>
<path d="M228.779 19.0144L223.892 38.6799L218.656 19.0144H228.779ZM233.55 -0.0110321L230.699 11.3344H216.619L213.594 -0.0110321H204.459L217.841 46.5344H229.652L243.034 -0.0110321H233.55Z" fill="black"/>
<path d="M185.411 -0.534546C181.726 -0.534546 178.43 -0.0496988 175.52 0.919998C172.65 1.92848 170.071 3.32485 167.782 5.10909L170.866 12.3818C172.96 10.7527 175.171 9.47273 177.499 8.54182C179.865 7.61091 182.56 7.14545 185.586 7.14545C188.029 7.14545 189.872 7.6497 191.113 8.65818C192.354 9.66666 192.975 11.0048 192.975 12.6727C192.975 14.6121 192.296 15.9891 190.939 16.8036C189.581 17.6182 187.137 18.4715 183.608 19.3636C178.177 20.6824 174.396 22.3503 172.262 24.3673C170.168 26.3842 169.12 29.3127 169.12 33.1527C169.12 37.2255 170.497 40.5418 173.251 43.1018C176.005 45.7006 179.981 47 185.179 47C188.126 47 191.036 46.4764 193.906 45.4291C196.776 44.4206 199.142 43.1406 201.004 41.5891L198.328 34.6073C196.233 36.0812 194.119 37.2255 191.986 38.04C189.853 38.8545 187.622 39.2618 185.295 39.2618C183.239 39.2618 181.668 38.8352 180.582 37.9818C179.496 37.1673 178.953 35.9261 178.953 34.2582C178.953 32.6291 179.574 31.3491 180.815 30.4182C182.095 29.4873 184.694 28.537 188.611 27.5673C193.925 26.3261 197.629 24.6582 199.724 22.5636C201.819 20.5079 202.866 17.4824 202.866 13.4873C202.866 8.98788 201.256 5.51636 198.037 3.07273C194.817 0.667879 190.609 -0.534546 185.411 -0.534546Z" fill="black"/>
<path d="M111.661 -0.0110321V46.5344H145.174V38.8544H121.552V28.7308H142.265V21.0508H121.552V7.66897H145.174V-0.0110321H111.661Z" fill="black"/>
<path d="M75.5073 -0.0110321V46.5344H107.798V38.8544H85.3982V25.2981H103.726V17.6181H85.3982V-0.0110321H75.5073Z" fill="black"/>
<path d="M35.2808 -0.0110321V7.66897H46.9171V38.8544H35.2808V46.5344H68.4444V38.8544H56.808V7.66897H68.4444V-0.0110321H35.2808Z" fill="black"/>
<path d="M0 -0.0110321V46.5344H9.89091V7.66897H30.2545V-0.0110321H0Z" fill="black"/>
</g>
<defs>
<clipPath id="clip0_10945_175">
<rect width="340" height="47" fill="white"/>
</clipPath>
</defs>
</svg>
