<svg preserveAspectRatio="none" width="340" height="47" viewBox="0 0 340 47" fill="none" xmlns="http://www.w3.org/2000/svg">
<g clip-path="url(#clip0_10945_175)">
<path d="M331.597 22.5747H339.161C341.643 22.5747 343.369 22.1674 344.339 21.3529C345.347 20.4995 345.852 19.0256 345.852 16.931V13.6147C345.852 11.6365 345.347 10.2401 344.339 9.42558C343.369 8.57224 341.643 8.14558 339.161 8.14558H331.597V22.5747ZM331.597 47.011H321.706V0.465576H340.441C345.522 0.465576 349.265 1.55164 351.67 3.72376C354.113 5.85709 355.335 8.99891 355.335 13.1492V17.1638C355.335 20.5383 354.579 23.2535 353.066 25.3092C351.592 27.3262 349.342 28.7032 346.317 29.4401L356.673 47.011H346.201L336.31 30.1965H331.597V47.011Z" fill="black"/>
<path d="M283.516 47.011V0.465576H317.029V8.14558H293.407V18.2692H314.12V25.9492H293.407V39.331H317.029V47.011H283.516Z" fill="black"/>
<path d="M268.249 47.011H255.624L242.649 0.465576H252.599L261.908 39.0401L271.682 0.465576H281.224L268.249 47.011Z" fill="black"/>
<path d="M228.779 27.9856L223.892 8.32012L218.656 27.9856H228.779ZM233.55 47.011L230.699 35.6656H216.619L213.594 47.011H204.459L217.841 0.465576H229.652L243.034 47.011H233.55Z" fill="black"/>
<path d="M185.411 47.5345C181.726 47.5345 178.43 47.0497 175.52 46.08C172.65 45.0715 170.071 43.6752 167.782 41.8909L170.866 34.6182C172.96 36.2473 175.171 37.5273 177.499 38.4582C179.865 39.3891 182.56 39.8545 185.586 39.8545C188.029 39.8545 189.872 39.3503 191.113 38.3418C192.354 37.3333 192.975 35.9952 192.975 34.3273C192.975 32.3879 192.296 31.0109 190.939 30.1964C189.581 29.3818 187.137 28.5285 183.608 27.6364C178.177 26.3176 174.396 24.6497 172.262 22.6327C170.168 20.6158 169.12 17.6873 169.12 13.8473C169.12 9.77455 170.497 6.45818 173.251 3.89818C176.005 1.29939 179.981 0 185.179 0C188.126 0 191.036 0.523637 193.906 1.57091C196.776 2.5794 199.142 3.8594 201.004 5.41091L198.328 12.3927C196.233 10.9188 194.119 9.77455 191.986 8.96C189.853 8.14545 187.622 7.73818 185.295 7.73818C183.239 7.73818 181.668 8.16485 180.582 9.01818C179.496 9.83273 178.953 11.0739 178.953 12.7418C178.953 14.3709 179.574 15.6509 180.815 16.5818C182.095 17.5127 184.694 18.463 188.611 19.4327C193.925 20.6739 197.629 22.3418 199.724 24.4364C201.819 26.4921 202.866 29.5176 202.866 33.5127C202.866 38.0121 201.256 41.4836 198.037 43.9273C194.817 46.3321 190.609 47.5345 185.411 47.5345Z" fill="black"/>
<path d="M111.661 47.011V0.465576H145.174V8.14558H121.552V18.2692H142.265V25.9492H121.552V39.331H145.174V47.011H111.661Z" fill="black"/>
<path d="M75.5073 47.011V0.465576H107.798V8.14558H85.3982V21.7019H103.726V29.3819H85.3982V47.011H75.5073Z" fill="black"/>
<path d="M35.2808 47.011V39.331H46.9171V8.14558H35.2808V0.465576H68.4444V8.14558H56.808V39.331H68.4444V47.011H35.2808Z" fill="black"/>
<path d="M0 47.011V0.465576H9.89091V39.331H30.2545V47.011H0Z" fill="black"/>
</g>
<defs>
<clipPath id="clip0_10945_175">
<rect width="340" height="47" fill="white" transform="matrix(1 0 0 -1 0 47)"/>
</clipPath>
</defs>
</svg>
