<svg width="340" height="47" viewBox="0 0 340 47" fill="none" xmlns="http://www.w3.org/2000/svg">
<path d="M176.673 47C171.126 47 166.917 45.6817 164.047 43.0451C161.177 40.3703 159.742 36.6065 159.742 31.7537V15.4756C159.742 10.5846 161.177 6.78252 164.047 4.06951C166.956 1.3565 171.184 0 176.731 0C182.277 0 186.467 1.3565 189.298 4.06951C192.168 6.78252 193.604 10.5846 193.604 15.4756V31.7537C193.604 36.6065 192.168 40.3703 189.298 43.0451C186.428 45.6817 182.219 47 176.673 47ZM176.673 39.4341C179.194 39.4341 180.997 38.8037 182.084 37.5427C183.17 36.2435 183.713 34.0463 183.713 30.9512V16.278C183.713 13.1829 183.17 10.9667 182.084 9.62927C180.997 8.25366 179.194 7.56585 176.673 7.56585C174.151 7.56585 172.348 8.25366 171.262 9.62927C170.176 10.9667 169.633 13.1829 169.633 16.278V30.9512C169.633 34.0463 170.176 36.2435 171.262 37.5427C172.348 38.8037 174.151 39.4341 176.673 39.4341Z" fill="black"/>
<path d="M136.33 47C130.783 47 126.497 45.6244 123.472 42.8732C120.485 40.0837 118.992 36.1098 118.992 30.9512L118.992 16.278C118.992 11.0431 120.466 7.03089 123.414 4.24146C126.361 1.41382 130.609 0 136.155 0C141.547 0 145.6 1.24187 148.315 3.72561C151.069 6.17114 152.582 9.7248 152.854 14.3866L142.963 14.9598C142.73 12.2085 142.109 10.298 141.101 9.22805C140.092 8.11992 138.463 7.56585 136.214 7.56585C133.537 7.56585 131.637 8.27276 130.512 9.68659C129.426 11.0622 128.883 13.5268 128.883 17.0805V30.1488C128.883 33.5878 129.426 35.9951 130.512 37.3707C131.637 38.7463 133.557 39.4341 136.272 39.4341C138.909 39.4341 140.752 38.7463 141.799 37.3707C142.846 35.9569 143.35 33.4732 143.312 29.9195H135.923V22.3537L153.203 22.3537V30.7793C153.203 36.0142 151.748 40.0264 148.839 42.8159C145.93 45.6053 141.76 47 136.33 47Z" fill="black"/>
<path d="M99.769 46.4269L87.0854 13.7562L87.0854 46.4269H78.5908L78.5908 0.573242L89.8199 0.573242L103.26 35.1928L103.26 0.573242L111.754 0.573242L111.754 46.4269H99.769Z" fill="black"/>
<path d="M37.8408 46.4269V38.861L49.4772 38.861L49.4772 8.1391L37.8408 8.1391V0.573242L71.0045 0.573242V8.1391L59.3681 8.1391L59.3681 38.861H71.0045V46.4269L37.8408 46.4269Z" fill="black"/>
<path d="M0 46.4269L0 0.573242L9.89091 0.573242L9.89091 38.861L30.2545 38.861V46.4269L0 46.4269Z" fill="black"/>
</svg>
