<svg preserveAspectRatio="none" width="340" height="47" viewBox="0 0 340 47" fill="none" xmlns="http://www.w3.org/2000/svg">
<g clip-path="url(#clip0_10945_175)">
<path d="M176.673 47.7091C171.126 47.7091 166.917 46.3709 164.047 43.6945C161.177 40.9794 159.742 37.1588 159.742 32.2327V15.7091C159.742 10.7442 161.177 6.88485 164.047 4.13091C166.956 1.37697 171.184 0 176.731 0C182.277 0 186.467 1.37697 189.298 4.13091C192.168 6.88485 193.604 10.7442 193.604 15.7091V32.2327C193.604 37.1588 192.168 40.9794 189.298 43.6945C186.428 46.3709 182.219 47.7091 176.673 47.7091ZM176.673 40.0291C179.194 40.0291 180.997 39.3891 182.084 38.1091C183.17 36.7903 183.713 34.56 183.713 31.4182V16.5236C183.713 13.3818 183.17 11.1321 182.084 9.77455C180.997 8.37818 179.194 7.68 176.673 7.68C174.151 7.68 172.348 8.37818 171.262 9.77455C170.176 11.1321 169.633 13.3818 169.633 16.5236V31.4182C169.633 34.56 170.176 36.7903 171.262 38.1091C172.348 39.3891 174.151 40.0291 176.673 40.0291Z" fill="black"/>
<path d="M136.33 47.7091C130.783 47.7091 126.497 46.3127 123.472 43.52C120.485 40.6885 118.992 36.6545 118.992 31.4182V16.5236C118.992 11.2097 120.466 7.13697 123.414 4.30545C126.361 1.43515 130.609 0 136.155 0C141.547 0 145.6 1.26061 148.315 3.78182C151.069 6.26424 152.582 9.87152 152.854 14.6036L142.963 15.1855C142.73 12.3927 142.109 10.4533 141.101 9.36727C140.092 8.24242 138.463 7.68 136.214 7.68C133.537 7.68 131.637 8.39758 130.512 9.83273C129.426 11.2291 128.883 13.7309 128.883 17.3382V30.6036C128.883 34.0945 129.426 36.5382 130.512 37.9345C131.637 39.3309 133.557 40.0291 136.272 40.0291C138.909 40.0291 140.752 39.3309 141.799 37.9345C142.846 36.4994 143.35 33.9782 143.312 30.3709H135.923V22.6909H153.203V31.2436C153.203 36.5576 151.748 40.6303 148.839 43.4618C145.93 46.2933 141.76 47.7091 136.33 47.7091Z" fill="black"/>
<path d="M99.769 47.1272L87.0854 13.9636V47.1272H78.5908V0.581787H89.8199L103.26 35.7236V0.581787H111.754V47.1272H99.769Z" fill="black"/>
<path d="M37.8408 47.1272V39.4472H49.4772V8.26179H37.8408V0.581787H71.0045V8.26179H59.3681V39.4472H71.0045V47.1272H37.8408Z" fill="black"/>
<path d="M0 47.1272V0.581787H9.89091V39.4472H30.2545V47.1272H0Z" fill="black"/>
</g>
<defs>
<clipPath id="clip0_10945_175">
<rect width="340" height="47" fill="white"/>
</clipPath>
</defs>
</svg>
