<svg width="340" height="47" viewBox="0 0 340 47" fill="none" xmlns="http://www.w3.org/2000/svg">
<path d="M176.673 1.18321e-06C171.126 1.18321e-06 166.917 1.31829 164.047 3.95488C161.177 6.62968 159.742 10.3935 159.742 15.2463V31.5244C159.742 36.4154 161.177 40.2175 164.047 42.9305C166.956 45.6435 171.184 47 176.731 47C182.277 47 186.467 45.6435 189.298 42.9305C192.168 40.2175 193.604 36.4154 193.604 31.5244V15.2463C193.604 10.3935 192.168 6.62968 189.298 3.95488C186.428 1.31829 182.219 1.18321e-06 176.673 1.18321e-06ZM176.673 7.56585C179.194 7.56585 180.997 8.19634 182.084 9.45732C183.17 10.7565 183.713 12.9537 183.713 16.0488V30.722C183.713 33.8171 183.17 36.0333 182.084 37.3707C180.997 38.7463 179.194 39.4341 176.673 39.4341C174.151 39.4341 172.348 38.7463 171.262 37.3707C170.176 36.0333 169.633 33.8171 169.633 30.722V16.0488C169.633 12.9537 170.176 10.7565 171.262 9.45732C172.348 8.19634 174.151 7.56585 176.673 7.56585Z" fill="black"/>
<path d="M136.33 1.18321e-06C130.783 1.18321e-06 126.497 1.37561 123.472 4.12683C120.485 6.91626 118.992 10.8902 118.992 16.0488L118.992 30.722C118.992 35.9569 120.466 39.9691 123.414 42.7585C126.361 45.5862 130.609 47 136.155 47C141.547 47 145.6 45.7581 148.315 43.2744C151.069 40.8289 152.582 37.2752 152.854 32.6134L142.963 32.0402C142.73 34.7915 142.109 36.702 141.101 37.772C140.092 38.8801 138.463 39.4341 136.214 39.4341C133.537 39.4341 131.637 38.7272 130.512 37.3134C129.426 35.9378 128.883 33.4732 128.883 29.9195V16.8512C128.883 13.4122 129.426 11.0049 130.512 9.62927C131.637 8.25366 133.557 7.56585 136.272 7.56585C138.909 7.56585 140.752 8.25366 141.799 9.62927C142.846 11.0431 143.35 13.5268 143.312 17.0805H135.923V24.6463L153.203 24.6463V16.2207C153.203 10.9858 151.748 6.97358 148.839 4.18415C145.93 1.39472 141.76 1.18321e-06 136.33 1.18321e-06Z" fill="black"/>
<path d="M99.769 0.573097L87.0854 33.2438L87.0854 0.573097H78.5908L78.5908 46.4268L89.8199 46.4268L103.26 11.8072L103.26 46.4268H111.754L111.754 0.573097H99.769Z" fill="black"/>
<path d="M37.8408 0.573097V8.13895L49.4772 8.13895L49.4772 38.8609H37.8408V46.4268L71.0045 46.4268V38.8609L59.3681 38.8609L59.3681 8.13895H71.0045V0.573097L37.8408 0.573097Z" fill="black"/>
<path d="M0 0.573097L0 46.4268H9.89091L9.89091 8.13895L30.2545 8.13895V0.573097L0 0.573097Z" fill="black"/>
</svg>
