<svg preserveAspectRatio="none" width="340" height="47" viewBox="0 0 340 47" fill="none" xmlns="http://www.w3.org/2000/svg">
<g clip-path="url(#clip0_10945_175)">
<path d="M176.673 -0.709091C171.126 -0.709091 166.917 0.629091 164.047 3.30545C161.177 6.02061 159.742 9.84121 159.742 14.7673V31.2909C159.742 36.2558 161.177 40.1152 164.047 42.8691C166.956 45.623 171.184 47 176.731 47C182.277 47 186.467 45.623 189.298 42.8691C192.168 40.1152 193.604 36.2558 193.604 31.2909V14.7673C193.604 9.84121 192.168 6.02061 189.298 3.30545C186.428 0.629091 182.219 -0.709091 176.673 -0.709091ZM176.673 6.97091C179.194 6.97091 180.997 7.61091 182.084 8.89091C183.17 10.2097 183.713 12.44 183.713 15.5818V30.4764C183.713 33.6182 183.17 35.8679 182.084 37.2255C180.997 38.6218 179.194 39.32 176.673 39.32C174.151 39.32 172.348 38.6218 171.262 37.2255C170.176 35.8679 169.633 33.6182 169.633 30.4764V15.5818C169.633 12.44 170.176 10.2097 171.262 8.89091C172.348 7.61091 174.151 6.97091 176.673 6.97091Z" fill="black"/>
<path d="M136.33 -0.709091C130.783 -0.709091 126.497 0.687272 123.472 3.48C120.485 6.31151 118.992 10.3455 118.992 15.5818V30.4764C118.992 35.7903 120.466 39.863 123.414 42.6945C126.361 45.5648 130.609 47 136.155 47C141.547 47 145.6 45.7394 148.315 43.2182C151.069 40.7358 152.582 37.1285 152.854 32.3964L142.963 31.8145C142.73 34.6073 142.109 36.5467 141.101 37.6327C140.092 38.7576 138.463 39.32 136.214 39.32C133.537 39.32 131.637 38.6024 130.512 37.1673C129.426 35.7709 128.883 33.2691 128.883 29.6618V16.3964C128.883 12.9055 129.426 10.4618 130.512 9.06545C131.637 7.66909 133.557 6.97091 136.272 6.97091C138.909 6.97091 140.752 7.66909 141.799 9.06545C142.846 10.5006 143.35 13.0218 143.312 16.6291H135.923V24.3091H153.203V15.7564C153.203 10.4424 151.748 6.3697 148.839 3.53818C145.93 0.706666 141.76 -0.709091 136.33 -0.709091Z" fill="black"/>
<path d="M99.769 -0.127243L87.0854 33.0364V-0.127243H78.5908V46.4182H89.8199L103.26 11.2764V46.4182H111.754V-0.127243H99.769Z" fill="black"/>
<path d="M37.8408 -0.127243V7.55276H49.4772V38.7382H37.8408V46.4182H71.0045V38.7382H59.3681V7.55276H71.0045V-0.127243H37.8408Z" fill="black"/>
<path d="M0 -0.127243V46.4182H9.89091V7.55276H30.2545V-0.127243H0Z" fill="black"/>
</g>
<defs>
<clipPath id="clip0_10945_175">
<rect width="340" height="47" fill="white" transform="matrix(1 0 0 -1 0 47)"/>
</clipPath>
</defs>
</svg>
