<svg width="340" height="47" viewBox="0 0 340 47" fill="none" xmlns="http://www.w3.org/2000/svg">
<g clip-path="url(#clip0_10945_175)">
<path d="M162.651 22.5637H170.214C172.697 22.5637 174.423 22.1564 175.393 21.3419C176.401 20.4885 176.905 19.0146 176.905 16.92V13.6037C176.905 11.6255 176.401 10.2291 175.393 9.41459C174.423 8.56126 172.697 8.13459 170.214 8.13459H162.651V22.5637ZM162.651 47H152.76V0.45459H171.494C176.576 0.45459 180.319 1.54065 182.723 3.71277C185.167 5.84611 186.389 8.98792 186.389 13.1382V17.1528C186.389 20.5273 185.632 23.2425 184.12 25.2982C182.646 27.3152 180.396 28.6922 177.371 29.4291L187.727 47H177.254L167.363 30.1855H162.651V47Z" fill="black"/>
<path d="M136.214 27.9746L131.326 8.30914L126.09 27.9746H136.214ZM140.984 47L138.134 35.6546H124.054L121.028 47H111.894L125.275 0.45459H137.086L150.468 47H140.984Z" fill="black"/>
<path d="M76.3799 47V0.45459H93.4853C98.6053 0.45459 102.387 1.34671 104.831 3.13095C107.274 4.9152 108.496 7.66914 108.496 11.3928V13.5455C108.496 15.9116 107.934 17.7346 106.809 19.0146C105.723 20.2946 104.036 21.1285 101.747 21.5164V23.2037C104.346 23.4752 106.363 24.4061 107.798 25.9964C109.233 27.5479 109.951 29.5261 109.951 31.931V34.84C109.951 38.9903 108.613 42.0546 105.936 44.0328C103.26 46.011 99.1096 47 93.4853 47H76.3799ZM86.2708 19.4219H92.8453C94.9399 19.4219 96.4332 19.0728 97.3253 18.3746C98.2562 17.6376 98.7217 16.4352 98.7217 14.7673V12.3237C98.7217 10.6558 98.2562 9.47277 97.3253 8.77459C96.4332 8.07641 94.9399 7.72732 92.8453 7.72732H86.2708V19.4219ZM86.2708 39.7273H93.0199C95.5799 39.7273 97.3835 39.32 98.4308 38.5055C99.5169 37.6522 100.06 36.2364 100.06 34.2582V31.5819C100.06 29.6425 99.5169 28.2655 98.4308 27.451C97.3835 26.5976 95.5799 26.171 93.0199 26.171H86.2708V39.7273Z" fill="black"/>
<path d="M38.1899 47V39.32H49.8263V8.13459H38.1899V0.45459H71.3536V8.13459H59.7172V39.32H71.3536V47H38.1899Z" fill="black"/>
<path d="M0 47V0.45459H17.6291C22.7103 0.45459 26.6473 1.52126 29.44 3.65459C32.2715 5.74914 33.6873 9.02671 33.6873 13.4873V19.7128C33.6873 24.0182 32.2909 27.1988 29.4982 29.2546C26.7055 31.2716 22.7491 32.28 17.6291 32.28H9.89091V47H0ZM9.89091 24.7164H17.1055C19.3939 24.7164 21.0812 24.3091 22.1673 23.4946C23.2533 22.68 23.7964 21.1673 23.7964 18.9564V14.0691C23.7964 11.7807 23.2533 10.2291 22.1673 9.41459C21.0812 8.56126 19.3939 8.13459 17.1055 8.13459H9.89091V24.7164Z" fill="black"/>
</g>
<defs>
<clipPath id="clip0_10945_175">
<rect width="340" height="47" fill="white" transform="matrix(1 0 0 -1 0 47)"/>
</clipPath>
</defs>
</svg>
