<svg width="340" height="47" viewBox="0 0 340 47" fill="none" xmlns="http://www.w3.org/2000/svg">
<g clip-path="url(#clip0_10945_175)">
<path d="M162.651 24.4363H170.214C172.697 24.4363 174.423 24.8436 175.393 25.6581C176.401 26.5115 176.905 27.9854 176.905 30.08V33.3963C176.905 35.3745 176.401 36.7709 175.393 37.5854C174.423 38.4387 172.697 38.8654 170.214 38.8654H162.651V24.4363ZM162.651 -4.57764e-05H152.76V46.5454H171.494C176.576 46.5454 180.319 45.4593 182.723 43.2872C185.167 41.1539 186.389 38.0121 186.389 33.8618V29.8472C186.389 26.4727 185.632 23.7575 184.12 21.7018C182.646 19.6848 180.396 18.3078 177.371 17.5709L187.727 -4.57764e-05H177.254L167.363 16.8145H162.651V-4.57764e-05Z" fill="black"/>
<path d="M136.214 19.0254L131.326 38.6909L126.09 19.0254H136.214ZM140.984 -4.57764e-05L138.134 11.3454H124.054L121.028 -4.57764e-05H111.894L125.275 46.5454H137.086L150.468 -4.57764e-05H140.984Z" fill="black"/>
<path d="M76.3799 -4.57764e-05V46.5454H93.4853C98.6053 46.5454 102.387 45.6533 104.831 43.869C107.274 42.0848 108.496 39.3309 108.496 35.6072V33.4545C108.496 31.0884 107.934 29.2654 106.809 27.9854C105.723 26.7054 104.036 25.8715 101.747 25.4836V23.7963C104.346 23.5248 106.363 22.5939 107.798 21.0036C109.233 19.4521 109.951 17.4739 109.951 15.069V12.16C109.951 8.00965 108.613 4.94541 105.936 2.96723C103.26 0.989046 99.1096 -4.57764e-05 93.4853 -4.57764e-05H76.3799ZM86.2708 27.5781H92.8453C94.9399 27.5781 96.4332 27.9272 97.3253 28.6254C98.2562 29.3624 98.7217 30.5648 98.7217 32.2327V34.6763C98.7217 36.3442 98.2562 37.5272 97.3253 38.2254C96.4332 38.9236 94.9399 39.2727 92.8453 39.2727H86.2708V27.5781ZM86.2708 7.27268H93.0199C95.5799 7.27268 97.3835 7.67995 98.4308 8.4945C99.5169 9.34783 100.06 10.7636 100.06 12.7418V15.4181C100.06 17.3575 99.5169 18.7345 98.4308 19.549C97.3835 20.4024 95.5799 20.829 93.0199 20.829H86.2708V7.27268Z" fill="black"/>
<path d="M38.1899 -4.57764e-05V7.67995H49.8263V38.8654H38.1899V46.5454H71.3536V38.8654H59.7172V7.67995H71.3536V-4.57764e-05H38.1899Z" fill="black"/>
<path d="M0 -4.57764e-05V46.5454H17.6291C22.7103 46.5454 26.6473 45.4787 29.44 43.3454C32.2715 41.2509 33.6873 37.9733 33.6873 33.5127V27.2872C33.6873 22.9818 32.2909 19.8012 29.4982 17.7454C26.7055 15.7284 22.7491 14.72 17.6291 14.72H9.89091V-4.57764e-05H0ZM9.89091 22.2836H17.1055C19.3939 22.2836 21.0812 22.6909 22.1673 23.5054C23.2533 24.32 23.7964 25.8327 23.7964 28.0436V32.9309C23.7964 35.2193 23.2533 36.7709 22.1673 37.5854C21.0812 38.4387 19.3939 38.8654 17.1055 38.8654H9.89091V22.2836Z" fill="black"/>
</g>
<defs>
<clipPath id="clip0_10945_175">
<rect width="340" height="47" fill="white"/>
</clipPath>
</defs>
</svg>
