<svg preserveAspectRatio="none" width="340" height="47" viewBox="0 0 340 47" fill="none" xmlns="http://www.w3.org/2000/svg">
<g clip-path="url(#clip0_10945_175)">
<path d="M280.537 29.5562L278.792 0.465332H291.01L289.265 29.5562H280.537ZM285.134 47.5926C282.574 47.5926 280.654 47.2047 279.374 46.429C278.094 45.6144 277.454 44.3732 277.454 42.7053V41.0762C277.454 39.3696 278.094 38.109 279.374 37.2944C280.654 36.4799 282.574 36.0726 285.134 36.0726C287.694 36.0726 289.594 36.4799 290.835 37.2944C292.115 38.109 292.755 39.3696 292.755 41.0762V42.7053C292.755 44.3732 292.096 45.6144 290.777 46.429C289.497 47.2047 287.616 47.5926 285.134 47.5926Z" fill="black"/>
<path d="M246.769 47.5345C243.084 47.5345 239.787 47.0497 236.878 46.08C234.008 45.0715 231.429 43.6752 229.14 41.8909L232.224 34.6182C234.318 36.2473 236.529 37.5273 238.857 38.4582C241.223 39.3891 243.918 39.8545 246.944 39.8545C249.387 39.8545 251.23 39.3503 252.471 38.3418C253.712 37.3333 254.333 35.9952 254.333 34.3273C254.333 32.3879 253.654 31.0109 252.297 30.1964C250.939 29.3818 248.495 28.5285 244.966 27.6364C239.535 26.3176 235.753 24.6497 233.62 22.6327C231.526 20.6158 230.478 17.6873 230.478 13.8473C230.478 9.77455 231.855 6.45818 234.609 3.89818C237.363 1.29939 241.339 0 246.536 0C249.484 0 252.393 0.523637 255.264 1.57091C258.134 2.5794 260.5 3.8594 262.362 5.41091L259.686 12.3927C257.591 10.9188 255.477 9.77455 253.344 8.96C251.21 8.14545 248.98 7.73818 246.653 7.73818C244.597 7.73818 243.026 8.16485 241.94 9.01818C240.854 9.83273 240.311 11.0739 240.311 12.7418C240.311 14.3709 240.932 15.6509 242.173 16.5818C243.453 17.5127 246.052 18.463 249.969 19.4327C255.283 20.6739 258.987 22.3418 261.082 24.4364C263.177 26.4921 264.224 29.5176 264.224 33.5127C264.224 38.0121 262.614 41.4836 259.395 43.9273C256.175 46.3321 251.967 47.5345 246.769 47.5345Z" fill="black"/>
<path d="M192.114 47.0108V0.465332H225.626V8.14533H202.005V18.269H222.717V25.949H202.005V39.3308H225.626V47.0108H192.114Z" fill="black"/>
<path d="M163.815 22.5744H171.378C173.861 22.5744 175.587 22.1672 176.557 21.3526C177.565 20.4993 178.069 19.0253 178.069 16.9308V13.6144C178.069 11.6362 177.565 10.2399 176.557 9.42533C175.587 8.572 173.861 8.14533 171.378 8.14533H163.815V22.5744ZM163.815 47.0108H153.924V0.465332H172.658C177.74 0.465332 181.483 1.55139 183.887 3.72351C186.331 5.85685 187.553 8.99867 187.553 13.149V17.1635C187.553 20.5381 186.797 23.2532 185.284 25.309C183.81 27.3259 181.56 28.7029 178.535 29.4399L188.891 47.0108H178.418L168.527 30.1962H163.815V47.0108Z" fill="black"/>
<path d="M115.733 47.0108V39.3308H127.37V8.14533H115.733V0.465332H148.897V8.14533H137.261V39.3308H148.897V47.0108H115.733Z" fill="black"/>
<path d="M99.1872 27.9853L94.2999 8.31988L89.0636 27.9853H99.1872ZM103.958 47.0108L101.107 35.6653H87.0272L84.0017 47.0108H74.8672L88.249 0.465332H100.06L113.442 47.0108H103.958Z" fill="black"/>
<path d="M50.9901 47.0108V8.14533H37.6665V0.465332H74.2047V8.14533H60.8811V47.0108H50.9901Z" fill="black"/>
<path d="M17.6291 47.5345C13.9442 47.5345 10.6473 47.0497 7.73818 46.08C4.86788 45.0715 2.28848 43.6752 0 41.8909L3.08364 34.6182C5.17818 36.2473 7.38909 37.5273 9.71636 38.4582C12.0824 39.3891 14.7782 39.8545 17.8036 39.8545C20.2473 39.8545 22.0897 39.3503 23.3309 38.3418C24.5721 37.3333 25.1927 35.9952 25.1927 34.3273C25.1927 32.3879 24.5139 31.0109 23.1564 30.1964C21.7988 29.3818 19.3552 28.5285 15.8255 27.6364C10.3952 26.3176 6.61333 24.6497 4.48 22.6327C2.38545 20.6158 1.33818 17.6873 1.33818 13.8473C1.33818 9.77455 2.71515 6.45818 5.46909 3.89818C8.22303 1.29939 12.1988 0 17.3964 0C20.3442 0 23.2533 0.523637 26.1236 1.57091C28.9939 2.5794 31.36 3.8594 33.2218 5.41091L30.5455 12.3927C28.4509 10.9188 26.337 9.77455 24.2036 8.96C22.0703 8.14545 19.84 7.73818 17.5127 7.73818C15.457 7.73818 13.8861 8.16485 12.8 9.01818C11.7139 9.83273 11.1709 11.0739 11.1709 12.7418C11.1709 14.3709 11.7915 15.6509 13.0327 16.5818C14.3127 17.5127 16.9115 18.463 20.8291 19.4327C26.143 20.6739 29.8473 22.3418 31.9418 24.4364C34.0364 26.4921 35.0836 29.5176 35.0836 33.5127C35.0836 38.0121 33.4739 41.4836 30.2545 43.9273C27.0352 46.3321 22.8267 47.5345 17.6291 47.5345Z" fill="black"/>
</g>
<defs>
<clipPath id="clip0_10945_175">
<rect width="340" height="47" fill="white" transform="matrix(1 0 0 -1 0 47)"/>
</clipPath>
</defs>
</svg>
