<svg preserveAspectRatio="none" width="340" height="47" viewBox="0 0 340 47" fill="none" xmlns="http://www.w3.org/2000/svg">
<g clip-path="url(#clip0_10945_175)">
<path d="M280.537 17.4438L278.792 46.5347H291.01L289.265 17.4438H280.537ZM285.134 -0.592606C282.574 -0.592606 280.654 -0.204728 279.374 0.57103C278.094 1.38558 277.454 2.62679 277.454 4.29467V5.92376C277.454 7.63043 278.094 8.89103 279.374 9.70557C280.654 10.5201 282.574 10.9274 285.134 10.9274C287.694 10.9274 289.594 10.5201 290.835 9.70557C292.115 8.89103 292.755 7.63043 292.755 5.92376V4.29467C292.755 2.62679 292.096 1.38558 290.777 0.57103C289.497 -0.204728 287.616 -0.592606 285.134 -0.592606Z" fill="black"/>
<path d="M246.769 -0.534546C243.084 -0.534546 239.787 -0.0496988 236.878 0.919998C234.008 1.92848 231.429 3.32485 229.14 5.10909L232.224 12.3818C234.318 10.7527 236.529 9.47273 238.857 8.54182C241.223 7.61091 243.918 7.14545 246.944 7.14545C249.387 7.14545 251.23 7.6497 252.471 8.65818C253.712 9.66666 254.333 11.0048 254.333 12.6727C254.333 14.6121 253.654 15.9891 252.297 16.8036C250.939 17.6182 248.495 18.4715 244.966 19.3636C239.535 20.6824 235.753 22.3503 233.62 24.3673C231.526 26.3842 230.478 29.3127 230.478 33.1527C230.478 37.2255 231.855 40.5418 234.609 43.1018C237.363 45.7006 241.339 47 246.536 47C249.484 47 252.393 46.4764 255.264 45.4291C258.134 44.4206 260.5 43.1406 262.362 41.5891L259.686 34.6073C257.591 36.0812 255.477 37.2255 253.344 38.04C251.21 38.8545 248.98 39.2618 246.653 39.2618C244.597 39.2618 243.026 38.8352 241.94 37.9818C240.854 37.1673 240.311 35.9261 240.311 34.2582C240.311 32.6291 240.932 31.3491 242.173 30.4182C243.453 29.4873 246.052 28.537 249.969 27.5673C255.283 26.3261 258.987 24.6582 261.082 22.5636C263.177 20.5079 264.224 17.4824 264.224 13.4873C264.224 8.98788 262.614 5.51636 259.395 3.07273C256.175 0.667879 251.967 -0.534546 246.769 -0.534546Z" fill="black"/>
<path d="M192.114 -0.010788V46.5347H225.626V38.8547H202.005V28.731H222.717V21.051H202.005V7.66921H225.626V-0.010788H192.114Z" fill="black"/>
<path d="M163.815 24.4256H171.378C173.861 24.4256 175.587 24.8328 176.557 25.6474C177.565 26.5007 178.069 27.9747 178.069 30.0692V33.3856C178.069 35.3638 177.565 36.7601 176.557 37.5747C175.587 38.428 173.861 38.8547 171.378 38.8547H163.815V24.4256ZM163.815 -0.010788H153.924V46.5347H172.658C177.74 46.5347 181.483 45.4486 183.887 43.2765C186.331 41.1432 187.553 38.0013 187.553 33.851V29.8365C187.553 26.4619 186.797 23.7468 185.284 21.691C183.81 19.6741 181.56 18.2971 178.535 17.5601L188.891 -0.010788H178.418L168.527 16.8038H163.815V-0.010788Z" fill="black"/>
<path d="M115.733 -0.010788V7.66921H127.37V38.8547H115.733V46.5347H148.897V38.8547H137.261V7.66921H148.897V-0.010788H115.733Z" fill="black"/>
<path d="M99.1872 19.0147L94.2999 38.6801L89.0636 19.0147H99.1872ZM103.958 -0.010788L101.107 11.3347H87.0272L84.0017 -0.010788H74.8672L88.249 46.5347H100.06L113.442 -0.010788H103.958Z" fill="black"/>
<path d="M50.9901 -0.010788V38.8547H37.6665V46.5347H74.2047V38.8547H60.8811V-0.010788H50.9901Z" fill="black"/>
<path d="M17.6291 -0.534546C13.9442 -0.534546 10.6473 -0.0496988 7.73818 0.919998C4.86788 1.92848 2.28848 3.32485 0 5.10909L3.08364 12.3818C5.17818 10.7527 7.38909 9.47273 9.71636 8.54182C12.0824 7.61091 14.7782 7.14545 17.8036 7.14545C20.2473 7.14545 22.0897 7.6497 23.3309 8.65818C24.5721 9.66666 25.1927 11.0048 25.1927 12.6727C25.1927 14.6121 24.5139 15.9891 23.1564 16.8036C21.7988 17.6182 19.3552 18.4715 15.8255 19.3636C10.3952 20.6824 6.61333 22.3503 4.48 24.3673C2.38545 26.3842 1.33818 29.3127 1.33818 33.1527C1.33818 37.2255 2.71515 40.5418 5.46909 43.1018C8.22303 45.7006 12.1988 47 17.3964 47C20.3442 47 23.2533 46.4764 26.1236 45.4291C28.9939 44.4206 31.36 43.1406 33.2218 41.5891L30.5455 34.6073C28.4509 36.0812 26.337 37.2255 24.2036 38.04C22.0703 38.8545 19.84 39.2618 17.5127 39.2618C15.457 39.2618 13.8861 38.8352 12.8 37.9818C11.7139 37.1673 11.1709 35.9261 11.1709 34.2582C11.1709 32.6291 11.7915 31.3491 13.0327 30.4182C14.3127 29.4873 16.9115 28.537 20.8291 27.5673C26.143 26.3261 29.8473 24.6582 31.9418 22.5636C34.0364 20.5079 35.0836 17.4824 35.0836 13.4873C35.0836 8.98788 33.4739 5.51636 30.2545 3.07273C27.0352 0.667879 22.8267 -0.534546 17.6291 -0.534546Z" fill="black"/>
</g>
<defs>
<clipPath id="clip0_10945_175">
<rect width="340" height="47" fill="white"/>
</clipPath>
</defs>
</svg>
