<svg width="47" height="161" viewBox="0 0 47 161" fill="none" xmlns="http://www.w3.org/2000/svg">
<path d="M26.4228 25.7443L46.4264 25.7443V35.646L0.572754 35.646L0.572754 25.7443H18.8569V23.531L0.572754 10.3675L0.572754 -0.000140366L21.7228 15.9591L46.4264 0.174611L46.4264 10.484L26.4228 23.3562V25.7443Z" fill="black"/>
<path d="M22.3532 66.5387L22.3532 58.9668C22.3532 56.4817 21.952 54.7538 21.1496 53.783C20.3089 52.7734 18.8569 52.2686 16.7935 52.2686H13.5264C11.5776 52.2686 10.202 52.7734 9.39959 53.783C8.55893 54.7538 8.13861 56.4817 8.13861 58.9668L8.13861 66.5387H22.3532ZM46.4264 66.5387V76.4404H0.572754L0.572754 57.6854C0.572754 52.5987 1.64267 48.8516 3.78251 46.4441C5.88414 43.9978 8.97926 42.7746 13.0679 42.7746H17.0228C20.3471 42.7746 23.0219 43.5318 25.0471 45.0462C27.0341 46.5218 28.3906 48.7739 29.1167 51.8027L46.4264 41.435L46.4264 51.9192L29.8618 61.8209V66.5387H46.4264Z" fill="black"/>
<path d="M47 100.635C47 106.188 45.6817 110.401 43.0451 113.274C40.3703 116.148 36.6065 117.584 31.7537 117.584H15.4756C10.5846 117.584 6.78252 116.148 4.06951 113.274C1.3565 110.362 0 106.13 0 100.577C0 95.0241 1.3565 90.8305 4.06951 87.9959C6.78252 85.1224 10.5846 83.6857 15.4756 83.6857H31.7537C36.6065 83.6857 40.3703 85.1224 43.0451 87.9959C45.6817 90.8693 47 95.0824 47 100.635ZM39.4341 100.635C39.4341 98.1111 38.8037 96.3055 37.5427 95.2183C36.2435 94.131 34.0463 93.5874 30.9512 93.5874H16.278C13.1829 93.5874 10.9667 94.131 9.62927 95.2183C8.25366 96.3055 7.56585 98.1111 7.56585 100.635C7.56585 103.159 8.25366 104.965 9.62927 106.052C10.9667 107.139 13.1829 107.683 16.278 107.683H30.9512C34.0463 107.683 36.2435 107.139 37.5427 106.052C38.8037 104.965 39.4341 103.159 39.4341 100.635Z" fill="black"/>
<path d="M46.4264 136.595L24.0728 141.313L46.4264 146.089V154.942L0.572754 161L0.572754 152.38L35.3069 149.642L12.0362 145.099V137.76L34.6764 133.1L0.572754 130.363L0.572754 121.801L46.4264 127.917L46.4264 136.595Z" fill="black"/>
</svg>
