<svg width="340" height="47" viewBox="0 0 340 47" fill="none" xmlns="http://www.w3.org/2000/svg" preserveAspectRatio="none">
<g clip-path="url(#clip0_10930_236)">
<path d="M350.32 27.6842L345.433 8.31105L340.196 27.6842H350.32ZM355.091 46.4269L352.24 35.2501H338.16L335.135 46.4269H326L339.382 0.573242H351.193L364.575 46.4269H355.091Z" fill="black"/>
<path d="M287.926 46.4269V0.573242H321.439V8.1391H297.817V18.1123H318.53V25.6781H297.817V38.861H321.439V46.4269H287.926Z" fill="black"/>
<path d="M264.165 47C258.619 47 254.333 45.6244 251.307 42.8732C248.32 40.0837 246.827 36.1098 246.827 30.9512V16.278C246.827 11.0431 248.301 7.03089 251.249 4.24146C254.197 1.41382 258.444 0 263.991 0C269.382 0 273.436 1.24187 276.151 3.72561C278.905 6.17114 280.417 9.7248 280.689 14.3866L270.798 14.9598C270.565 12.2085 269.945 10.298 268.936 9.22805C267.928 8.11992 266.299 7.56585 264.049 7.56585C261.373 7.56585 259.472 8.27276 258.347 9.68659C257.261 11.0622 256.718 13.5268 256.718 17.0805V30.1488C256.718 33.5878 257.261 35.9951 258.347 37.3707C259.472 38.7463 261.392 39.4341 264.107 39.4341C266.745 39.4341 268.587 38.7463 269.634 37.3707C270.682 35.9569 271.186 33.4732 271.147 29.9195H263.758V22.3537H281.038V30.7793C281.038 36.0142 279.584 40.0264 276.674 42.8159C273.765 45.6053 269.596 47 264.165 47Z" fill="black"/>
<path d="M227.604 46.4269L214.921 13.7562V46.4269H206.426V0.573242H217.655L231.095 35.1928V0.573242H239.59V46.4269H227.604Z" fill="black"/>
<path d="M165.676 46.4269V38.861H177.313V8.1391H165.676V0.573242H198.84V8.1391H187.204V38.861H198.84V46.4269H165.676Z" fill="black"/>
<path d="M127.835 46.4269V0.573242H137.726V38.861H158.09V46.4269H127.835Z" fill="black"/>
<path d="M100.642 46.9428C96.9569 46.9428 93.66 46.4652 90.7509 45.5099C87.8806 44.5164 85.3012 43.1408 83.0127 41.383L86.0963 34.2184C88.1909 35.8233 90.4018 37.0843 92.7291 38.0013C95.0951 38.9184 97.7909 39.3769 100.816 39.3769C103.26 39.3769 105.102 38.8802 106.344 37.8867C107.585 36.8932 108.205 35.5749 108.205 33.9318C108.205 32.0213 107.527 30.6647 106.169 29.8623C104.811 29.0599 102.368 28.2192 98.8382 27.3404C93.4078 26.0412 89.626 24.3981 87.4927 22.4111C85.3982 20.4241 84.3509 17.5391 84.3509 13.7562C84.3509 9.74401 85.7278 6.47694 88.4818 3.95499C91.2357 1.39483 95.2115 0.114746 100.409 0.114746C103.357 0.114746 106.266 0.630601 109.136 1.66231C112.007 2.6558 114.373 3.91678 116.235 5.44524L113.558 12.3233C111.464 10.8713 109.35 9.74401 107.216 8.94157C105.083 8.13914 102.853 7.73792 100.525 7.73792C98.4697 7.73792 96.8988 8.15824 95.8127 8.99889C94.7266 9.80133 94.1836 11.0241 94.1836 12.6672C94.1836 14.2721 94.8042 15.533 96.0454 16.4501C97.3254 17.3672 99.9242 18.3034 103.842 19.2586C109.156 20.4814 112.86 22.1245 114.955 24.1879C117.049 26.2131 118.096 29.1936 118.096 33.1294C118.096 37.5619 116.487 40.9818 113.267 43.3891C110.048 45.7582 105.839 46.9428 100.642 46.9428Z" fill="black"/>
<path d="M43.4263 46.4269V38.861H55.0626V8.1391H43.4263V0.573242H76.5899V8.1391H64.9535V38.861H76.5899V46.4269H43.4263Z" fill="black"/>
<path d="M24.32 27.6842L19.4327 8.31105L14.1964 27.6842H24.32ZM29.0909 46.4269L26.24 35.2501H12.16L9.13455 46.4269H0L13.3818 0.573242H25.1927L38.5745 46.4269H29.0909Z" fill="black"/>
</g>
<defs>
<clipPath id="clip0_10930_236">
<rect width="340" height="47" fill="white"/>
</clipPath>
</defs>
</svg>
