<svg width="340" height="47" viewBox="0 0 340 47" fill="none" xmlns="http://www.w3.org/2000/svg" preserveAspectRatio="none">
<g clip-path="url(#clip0_10930_236)">
<path d="M310.769 46.4267V0.572998H319.487V17.3096H331.282V0.572998H340V46.4267H331.282V24.8754H319.487V46.4267H310.769Z" fill="black"/>
<path d="M295.056 47C289.894 47 286.03 45.739 283.466 43.2171C280.902 40.6569 279.62 36.8358 279.62 31.7537V15.4756C279.62 10.3171 280.902 6.45772 283.466 3.89756C286.065 1.29919 289.945 0 295.108 0C300.304 0 304.099 1.28008 306.492 3.84024C308.92 6.40041 310.253 10.5654 310.492 16.3354L301.774 16.9085C301.535 13.202 300.954 10.7183 300.031 9.45732C299.142 8.19634 297.484 7.56585 295.056 7.56585C292.629 7.56585 290.902 8.23455 289.877 9.57195C288.851 10.9094 288.338 13.1638 288.338 16.3354V30.9512C288.338 34.0081 288.851 36.1862 289.877 37.4854C290.902 38.7846 292.629 39.4341 295.056 39.4341C297.449 39.4341 299.108 38.8228 300.031 37.6C300.954 36.3772 301.535 33.9508 301.774 30.3207L310.492 30.8939C310.253 36.5874 308.92 40.6951 306.492 43.2171C304.099 45.739 300.287 47 295.056 47Z" fill="black"/>
<path d="M268.164 27.684L263.856 8.3108L259.241 27.684H268.164ZM272.369 46.4267L269.857 35.2498H257.446L254.779 46.4267H246.728L258.523 0.572998H268.933L280.729 46.4267H272.369Z" fill="black"/>
<path d="M218.246 46.4267V0.572998H247.785V8.13885H226.964V18.112H245.221V25.6779H226.964V38.8608H247.785V46.4267H218.246Z" fill="black"/>
<path d="M202.379 47C197.49 47 193.713 45.6244 191.046 42.8732C188.413 40.0837 187.097 36.1098 187.097 30.9512V16.2781C187.097 11.0431 188.396 7.03089 190.995 4.24146C193.593 1.41382 197.337 0 202.226 0C206.978 0 210.55 1.24187 212.944 3.72561C215.371 6.17114 216.704 9.7248 216.944 14.3866L208.226 14.9598C208.021 12.2085 207.474 10.298 206.585 9.22805C205.696 8.11992 204.26 7.56585 202.277 7.56585C199.918 7.56585 198.243 8.27277 197.251 9.68659C196.294 11.0622 195.815 13.5268 195.815 17.0805V30.1488C195.815 33.5878 196.294 35.9951 197.251 37.3707C198.243 38.7463 199.935 39.4341 202.328 39.4341C204.653 39.4341 206.277 38.7463 207.2 37.3707C208.123 35.9569 208.568 33.4732 208.533 29.9195H202.02V22.3537H217.251V30.7793C217.251 36.0142 215.969 40.0264 213.405 42.8159C210.841 45.6053 207.166 47 202.379 47Z" fill="black"/>
<path d="M175.23 46.4267L164.051 13.7559V46.4267H156.563V0.572998H166.461L178.307 35.1925V0.572998H185.795V46.4267H175.23Z" fill="black"/>
<path d="M125.723 46.4267V38.8608H135.979V8.13885H125.723V0.572998H154.954V8.13885H144.697V38.8608H154.954V46.4267H125.723Z" fill="black"/>
<path d="M97.4458 46.4267V0.572998H106.164V38.8608H124.113V46.4267H97.4458Z" fill="black"/>
<path d="M78.5538 46.9426C75.3059 46.9426 72.3999 46.4649 69.8357 45.5096C67.3058 44.5161 65.0323 43.1405 63.0151 41.3828L65.7331 34.2182C67.5793 35.823 69.528 37.084 71.5794 38.0011C73.6649 38.9182 76.041 39.3767 78.7077 39.3767C80.8615 39.3767 82.4855 38.88 83.5795 37.8865C84.6736 36.893 85.2206 35.5747 85.2206 33.9316C85.2206 32.021 84.6223 30.6645 83.4257 29.8621C82.2291 29.0596 80.0752 28.219 76.9641 27.3401C72.1777 26.0409 68.8443 24.3978 66.9639 22.4108C65.1177 20.4239 64.1946 17.5389 64.1946 13.756C64.1946 9.74377 65.4083 6.4767 67.8357 3.95475C70.2631 1.39458 73.7674 0.114502 78.3487 0.114502C80.947 0.114502 83.5112 0.630357 86.0411 1.66207C88.5711 2.65556 90.6566 3.91654 92.2976 5.44499L89.9386 12.323C88.0924 10.871 86.2291 9.74377 84.3488 8.94133C82.4684 8.13889 80.5026 7.73767 78.4513 7.73767C76.6393 7.73767 75.2546 8.158 74.2973 8.99865C73.3401 9.80109 72.8614 11.0239 72.8614 12.6669C72.8614 14.2718 73.4084 15.5328 74.5025 16.4499C75.6307 17.3669 77.9213 18.3031 81.3744 19.2584C86.0582 20.4812 89.3232 22.1243 91.1694 24.1877C93.0156 26.2129 93.9386 29.1934 93.9386 33.1291C93.9386 37.5617 92.5198 40.9816 89.6822 43.3889C86.8445 45.758 83.1351 46.9426 78.5538 46.9426Z" fill="black"/>
<path d="M33.1997 46.4267V38.8608H43.4563V8.13885H33.1997V0.572998H62.4309V8.13885H52.1743V38.8608H62.4309V46.4267H33.1997Z" fill="black"/>
<path d="M21.4362 27.684L17.1284 8.3108L12.513 27.684H21.4362ZM25.6414 46.4267L23.1285 35.2498H10.7181L8.0514 46.4267H0L11.795 0.572998H22.2054L34.0005 46.4267H25.6414Z" fill="black"/>
</g>
<defs>
<clipPath id="clip0_10930_236">
<rect width="340" height="47" fill="white"/>
</clipPath>
</defs>
</svg>
