<svg  preserveAspectRatio="none" width="341" height="48" viewBox="0 0 341 48" fill="none" xmlns="http://www.w3.org/2000/svg">
<g clip-path="url(#clip0_10945_175)">
<path d="M317.599 48V9.13459H304.294V1.45459H340.782V9.13459H327.477V48H317.599Z" fill="black"/>
<path d="M281.845 48.5819C276.306 48.5819 272.103 47.2437 269.237 44.5673C266.371 41.8522 264.938 38.0316 264.938 33.1055V16.5819C264.938 11.617 266.371 7.75765 269.237 5.00371C272.142 2.24977 276.364 0.872803 281.903 0.872803C287.442 0.872803 291.625 2.24977 294.453 5.00371C297.319 7.75765 298.752 11.617 298.752 16.5819V33.1055C298.752 38.0316 297.319 41.8522 294.453 44.5673C291.586 47.2437 287.384 48.5819 281.845 48.5819ZM281.845 40.9019C284.362 40.9019 286.164 40.2619 287.248 38.9819C288.333 37.6631 288.875 35.4328 288.875 32.291V17.3964C288.875 14.2546 288.333 12.0049 287.248 10.6474C286.164 9.25099 284.362 8.5528 281.845 8.5528C279.327 8.5528 277.526 9.25099 276.441 10.6474C275.357 12.0049 274.815 14.2546 274.815 17.3964V32.291C274.815 35.4328 275.357 37.6631 276.441 38.9819C277.526 40.2619 279.327 40.9019 281.845 40.9019Z" fill="black"/>
<path d="M241.152 48.5819C235.613 48.5819 231.41 47.2437 228.544 44.5673C225.678 41.8522 224.245 38.0316 224.245 33.1055V16.5819C224.245 11.617 225.678 7.75765 228.544 5.00371C231.449 2.24977 235.671 0.872803 241.21 0.872803C246.749 0.872803 250.932 2.24977 253.76 5.00371C256.626 7.75765 258.059 11.617 258.059 16.5819V33.1055C258.059 38.0316 256.626 41.8522 253.76 44.5673C250.893 47.2437 246.691 48.5819 241.152 48.5819ZM241.152 40.9019C243.67 40.9019 245.471 40.2619 246.555 38.9819C247.64 37.6631 248.182 35.4328 248.182 32.291V17.3964C248.182 14.2546 247.64 12.0049 246.555 10.6474C245.471 9.25099 243.67 8.5528 241.152 8.5528C238.634 8.5528 236.833 9.25099 235.749 10.6474C234.664 12.0049 234.122 14.2546 234.122 17.3964V32.291C234.122 35.4328 234.664 37.6631 235.749 38.9819C236.833 40.2619 238.634 40.9019 241.152 40.9019Z" fill="black"/>
<path d="M193.777 23.5637H201.331C203.809 23.5637 205.533 23.1564 206.501 22.3419C207.509 21.4885 208.012 20.0146 208.012 17.92V14.6037C208.012 12.6255 207.509 11.2291 206.501 10.4146C205.533 9.56126 203.809 9.13459 201.331 9.13459H193.777V23.5637ZM193.777 48H183.9V1.45459H202.609C207.683 1.45459 211.421 2.54065 213.822 4.71277C216.262 6.84611 217.482 9.98792 217.482 14.1382V18.1528C217.482 21.5273 216.727 24.2425 215.217 26.2982C213.745 28.3152 211.498 29.6922 208.477 30.4291L218.819 48H208.361L198.484 31.1855H193.777V48Z" fill="black"/>
<path d="M122.861 48V1.45459H138.955C144.377 1.45459 148.619 3.0061 151.679 6.10913C154.777 9.17338 156.327 13.2655 156.327 18.3855V31.3019C156.327 36.3831 154.777 40.4364 151.679 43.4619C148.619 46.4873 144.358 48 138.897 48H122.861ZM132.738 40.32H138.083C141.104 40.32 143.254 39.5443 144.532 37.9928C145.811 36.4413 146.45 33.9394 146.45 30.4873V19.2C146.45 15.7091 145.811 13.1685 144.532 11.5782C143.254 9.94914 141.104 9.13459 138.083 9.13459H132.738V40.32Z" fill="black"/>
<path d="M103.781 28.9746L98.9007 9.30914L93.6716 28.9746H103.781ZM108.545 48L105.698 36.6546H91.6381L88.6169 48H79.4951L92.8582 1.45459H104.653L118.016 48H108.545Z" fill="black"/>
<path d="M51.3517 23.5637H58.9047C61.3837 23.5637 63.1073 23.1564 64.0757 22.3419C65.0828 21.4885 65.5863 20.0146 65.5863 17.92V14.6037C65.5863 12.6255 65.0828 11.2291 64.0757 10.4146C63.1073 9.56126 61.3837 9.13459 58.9047 9.13459H51.3517V23.5637ZM51.3517 48H41.4746V1.45459H60.183C65.2571 1.45459 68.9949 2.54065 71.3963 4.71277C73.8366 6.84611 75.0567 9.98792 75.0567 14.1382V18.1528C75.0567 21.5273 74.3014 24.2425 72.7907 26.2982C71.3189 28.3152 69.0723 29.6922 66.0511 30.4291L76.393 48H65.9349L56.0578 31.1855H51.3517V48Z" fill="black"/>
<path d="M0.781738 48V1.45459H17.8633C22.9761 1.45459 26.7526 2.34671 29.1929 4.13095C31.6331 5.9152 32.8532 8.66914 32.8532 12.3928V14.5455C32.8532 16.9116 32.2915 18.7346 31.1683 20.0146C30.0837 21.2946 28.3988 22.1285 26.1135 22.5164V24.2037C28.7087 24.4752 30.7228 25.4061 32.156 26.9964C33.5891 28.5479 34.3057 30.5261 34.3057 32.931V35.84C34.3057 39.9903 32.9694 43.0546 30.2968 45.0328C27.6241 47.011 23.4796 48 17.8633 48H0.781738ZM10.6588 20.4219H17.2242C19.3158 20.4219 20.807 20.0728 21.6979 19.3746C22.6275 18.6376 23.0923 17.4352 23.0923 15.7673V13.3237C23.0923 11.6558 22.6275 10.4728 21.6979 9.77459C20.807 9.07641 19.3158 8.72732 17.2242 8.72732H10.6588V20.4219ZM10.6588 40.7273H17.3985C19.9549 40.7273 21.756 40.32 22.8018 39.5055C23.8863 38.6522 24.4286 37.2364 24.4286 35.2582V32.5819C24.4286 30.6425 23.8863 29.2655 22.8018 28.451C21.756 27.5976 19.9549 27.171 17.3985 27.171H10.6588V40.7273Z" fill="black"/>
</g>
<defs>
<clipPath id="clip0_10945_175">
<rect width="340" height="47" fill="white" transform="translate(0.781738 0.872803)"/>
</clipPath>
</defs>
</svg>
