<svg width="340" height="47" viewBox="0 0 340 47" fill="none" xmlns="http://www.w3.org/2000/svg" preserveAspectRatio="none">
<path d="M316.818 0.573097V38.8609L303.513 38.8609V46.4268L340 46.4268V38.8609L326.695 38.8609V0.573097H316.818Z" fill="black"/>
<path d="M281.063 1.18321e-06C275.525 1.18321e-06 271.322 1.31829 268.456 3.95488C265.589 6.62968 264.156 10.3935 264.156 15.2463V31.5244C264.156 36.4154 265.589 40.2175 268.456 42.9305C271.361 45.6435 275.583 47 281.122 47C286.66 47 290.844 45.6435 293.671 42.9305C296.538 40.2175 297.971 36.4154 297.971 31.5244V15.2463C297.971 10.3935 296.538 6.62968 293.671 3.95488C290.805 1.31829 286.602 1.18321e-06 281.063 1.18321e-06ZM281.063 7.56585C283.581 7.56585 285.382 8.19634 286.467 9.45732C287.551 10.7565 288.094 12.9537 288.094 16.0488V30.722C288.094 33.8171 287.551 36.0333 286.467 37.3707C285.382 38.7463 283.581 39.4341 281.063 39.4341C278.546 39.4341 276.745 38.7463 275.66 37.3707C274.576 36.0333 274.033 33.8171 274.033 30.722V16.0488C274.033 12.9537 274.576 10.7565 275.66 9.45732C276.745 8.19634 278.546 7.56585 281.063 7.56585Z" fill="black"/>
<path d="M240.37 1.18321e-06C234.831 1.18321e-06 230.629 1.31829 227.762 3.95488C224.896 6.62968 223.463 10.3935 223.463 15.2463V31.5244C223.463 36.4154 224.896 40.2175 227.762 42.9305C230.667 45.6435 234.889 47 240.428 47C245.967 47 250.15 45.6435 252.978 42.9305C255.844 40.2175 257.277 36.4154 257.277 31.5244V15.2463C257.277 10.3935 255.844 6.62968 252.978 3.95488C250.112 1.31829 245.909 1.18321e-06 240.37 1.18321e-06ZM240.37 7.56585C242.888 7.56585 244.689 8.19634 245.773 9.45732C246.858 10.7565 247.4 12.9537 247.4 16.0488V30.722C247.4 33.8171 246.858 36.0333 245.773 37.3707C244.689 38.7463 242.888 39.4341 240.37 39.4341C237.852 39.4341 236.051 38.7463 234.967 37.3707C233.882 36.0333 233.34 33.8171 233.34 30.722V16.0488C233.34 12.9537 233.882 10.7565 234.967 9.45732C236.051 8.19634 237.852 7.56585 240.37 7.56585Z" fill="black"/>
<path d="M192.996 24.6463L200.549 24.6463C203.028 24.6463 204.751 25.0475 205.72 25.8499C206.727 26.6906 207.23 28.1426 207.23 30.206V33.4731C207.23 35.4219 206.727 36.7975 205.72 37.5999C204.751 38.4406 203.028 38.8609 200.549 38.8609L192.996 38.8609V24.6463ZM192.996 0.573097H183.119L183.119 46.4268L201.827 46.4268C206.901 46.4268 210.639 45.3568 213.04 43.217C215.481 41.1154 216.701 38.0203 216.701 33.9316V29.9768C216.701 26.6524 215.945 23.9776 214.435 21.9524C212.963 19.9654 210.716 18.6089 207.695 17.8829L218.037 0.573097L207.579 0.573097L197.702 17.1377H192.996L192.996 0.573097Z" fill="black"/>
<path d="M122.079 0.573097L122.079 46.4268L138.173 46.4268C143.596 46.4268 147.837 44.8983 150.897 41.8414C153.996 38.8227 155.545 34.7914 155.545 29.7475V17.0231C155.545 12.0174 153.996 8.02432 150.897 5.04383C147.837 2.06334 143.576 0.573097 138.115 0.573097L122.079 0.573097ZM131.956 8.13895L137.301 8.13895C140.323 8.13895 142.472 8.90318 143.751 10.4316C145.029 11.9601 145.668 14.4247 145.668 17.8255V28.945C145.668 32.3841 145.029 34.8869 143.751 36.4536C142.472 38.0585 140.323 38.8609 137.301 38.8609L131.956 38.8609V8.13895Z" fill="black"/>
<path d="M102.999 19.3158L98.1189 38.689L92.8899 19.3158L102.999 19.3158ZM107.764 0.573097L104.917 11.7499H90.8564L87.8352 0.573097H78.7134L92.0765 46.4268H103.871L117.234 0.573097L107.764 0.573097Z" fill="black"/>
<path d="M50.57 24.6463L58.123 24.6463C60.602 24.6463 62.3256 25.0475 63.294 25.8499C64.301 26.6906 64.8046 28.1426 64.8046 30.206V33.4731C64.8046 35.4219 64.301 36.7975 63.294 37.5999C62.3256 38.4406 60.602 38.8609 58.123 38.8609L50.57 38.8609L50.57 24.6463ZM50.57 0.573097H40.6929L40.6929 46.4268L59.4012 46.4268C64.4753 46.4268 68.2131 45.3568 70.6146 43.217C73.0548 41.1154 74.275 38.0203 74.275 33.9316V29.9768C74.275 26.6524 73.5196 23.9776 72.009 21.9524C70.5372 19.9654 68.2906 18.6089 65.2694 17.8829L75.6113 0.573097L65.1532 0.573097L55.2761 17.1377H50.57L50.57 0.573097Z" fill="black"/>
<path d="M0 0.573097L0 46.4268L17.0815 46.4268C22.1944 46.4268 25.9709 45.5479 28.4111 43.7902C30.8514 42.0324 32.0715 39.3194 32.0715 35.6511V33.5304C32.0715 31.1995 31.5098 29.4036 30.3866 28.1426C29.302 26.8816 27.6171 26.0601 25.3318 25.678V24.0158C27.927 23.7483 29.9411 22.8312 31.3743 21.2646C32.8074 19.7361 33.524 17.7873 33.524 15.4182L33.524 12.5524C33.524 8.46375 32.1877 5.44505 29.515 3.49627C26.8424 1.54749 22.6979 0.573097 17.0815 0.573097L0 0.573097ZM9.87708 27.7414H16.4424C18.5341 27.7414 20.0253 28.0853 20.9162 28.7731C21.8458 29.4991 22.3106 30.6837 22.3106 32.3268V34.7341C22.3106 36.3772 21.8458 37.5426 20.9162 38.2304C20.0253 38.9182 18.5341 39.2621 16.4424 39.2621L9.87708 39.2621L9.87708 27.7414ZM9.87708 7.73773L16.6167 7.73773C19.1732 7.73773 20.9743 8.13895 22.0201 8.94139C23.1046 9.78204 23.6469 11.1768 23.6469 13.1255V15.7621C23.6469 17.6727 23.1046 19.0292 22.0201 19.8316C20.9743 20.6723 19.1732 21.0926 16.6167 21.0926H9.87708L9.87708 7.73773Z" fill="black"/>
</svg>
