<svg preserveAspectRatio="none" width="341" height="48" viewBox="0 0 341 48" fill="none" xmlns="http://www.w3.org/2000/svg">
<g clip-path="url(#clip0_10945_175)">
<path d="M317.599 0.74556V39.611H304.294V47.291H340.782V39.611H327.477V0.74556H317.599Z" fill="black"/>
<path d="M281.845 0.163712C276.306 0.163712 272.103 1.50189 269.237 4.17826C266.371 6.89341 264.938 10.714 264.938 15.6401V32.1637C264.938 37.1286 266.371 40.988 269.237 43.7419C272.142 46.4958 276.364 47.8728 281.903 47.8728C287.442 47.8728 291.625 46.4958 294.453 43.7419C297.319 40.988 298.752 37.1286 298.752 32.1637V15.6401C298.752 10.714 297.319 6.89341 294.453 4.17826C291.586 1.50189 287.384 0.163712 281.845 0.163712ZM281.845 7.84371C284.362 7.84371 286.164 8.48371 287.248 9.76371C288.333 11.0825 288.875 13.3128 288.875 16.4546V31.3492C288.875 34.491 288.333 36.7407 287.248 38.0983C286.164 39.4946 284.362 40.1928 281.845 40.1928C279.327 40.1928 277.526 39.4946 276.441 38.0983C275.357 36.7407 274.815 34.491 274.815 31.3492V16.4546C274.815 13.3128 275.357 11.0825 276.441 9.76371C277.526 8.48371 279.327 7.84371 281.845 7.84371Z" fill="black"/>
<path d="M241.152 0.163712C235.613 0.163712 231.41 1.50189 228.544 4.17826C225.678 6.89341 224.245 10.714 224.245 15.6401V32.1637C224.245 37.1286 225.678 40.988 228.544 43.7419C231.449 46.4958 235.671 47.8728 241.21 47.8728C246.749 47.8728 250.932 46.4958 253.76 43.7419C256.626 40.988 258.059 37.1286 258.059 32.1637V15.6401C258.059 10.714 256.626 6.89341 253.76 4.17826C250.893 1.50189 246.691 0.163712 241.152 0.163712ZM241.152 7.84371C243.67 7.84371 245.471 8.48371 246.555 9.76371C247.64 11.0825 248.182 13.3128 248.182 16.4546V31.3492C248.182 34.491 247.64 36.7407 246.555 38.0983C245.471 39.4946 243.67 40.1928 241.152 40.1928C238.634 40.1928 236.833 39.4946 235.749 38.0983C234.664 36.7407 234.122 34.491 234.122 31.3492V16.4546C234.122 13.3128 234.664 11.0825 235.749 9.76371C236.833 8.48371 238.634 7.84371 241.152 7.84371Z" fill="black"/>
<path d="M193.777 25.1819H201.331C203.809 25.1819 205.533 25.5892 206.501 26.4037C207.509 27.2571 208.012 28.731 208.012 30.8256V34.1419C208.012 36.1201 207.509 37.5165 206.501 38.331C205.533 39.1843 203.809 39.611 201.331 39.611H193.777V25.1819ZM193.777 0.74556H183.9V47.291H202.609C207.683 47.291 211.421 46.205 213.822 44.0328C216.262 41.8995 217.482 38.7577 217.482 34.6074V30.5928C217.482 27.2183 216.727 24.5031 215.217 22.4474C213.745 20.4304 211.498 19.0534 208.477 18.3165L218.819 0.74556H208.361L198.484 17.5601H193.777V0.74556Z" fill="black"/>
<path d="M122.861 0.74556V47.291H138.955C144.377 47.291 148.619 45.7395 151.679 42.6365C154.777 39.5722 156.327 35.4801 156.327 30.3601V17.4437C156.327 12.3625 154.777 8.3092 151.679 5.28374C148.619 2.25829 144.358 0.74556 138.897 0.74556H122.861ZM132.738 8.42556H138.083C141.104 8.42556 143.254 9.20132 144.532 10.7528C145.811 12.3043 146.45 14.8062 146.45 18.2583V29.5456C146.45 33.0365 145.811 35.5771 144.532 37.1674C143.254 38.7965 141.104 39.611 138.083 39.611H132.738V8.42556Z" fill="black"/>
<path d="M103.781 19.771L98.9007 39.4365L93.6716 19.771H103.781ZM108.545 0.74556L105.698 12.091H91.6381L88.6169 0.74556H79.4951L92.8582 47.291H104.653L118.016 0.74556H108.545Z" fill="black"/>
<path d="M51.3517 25.1819H58.9047C61.3837 25.1819 63.1073 25.5892 64.0757 26.4037C65.0828 27.2571 65.5863 28.731 65.5863 30.8256V34.1419C65.5863 36.1201 65.0828 37.5165 64.0757 38.331C63.1073 39.1843 61.3837 39.611 58.9047 39.611H51.3517V25.1819ZM51.3517 0.74556H41.4746V47.291H60.183C65.2571 47.291 68.9949 46.205 71.3963 44.0328C73.8366 41.8995 75.0567 38.7577 75.0567 34.6074V30.5928C75.0567 27.2183 74.3014 24.5031 72.7907 22.4474C71.3189 20.4304 69.0723 19.0534 66.0511 18.3165L76.393 0.74556H65.9349L56.0578 17.5601H51.3517V0.74556Z" fill="black"/>
<path d="M0.781738 0.74556V47.291H17.8633C22.9761 47.291 26.7526 46.3989 29.1929 44.6147C31.6331 42.8304 32.8532 40.0765 32.8532 36.3528V34.2001C32.8532 31.834 32.2915 30.011 31.1683 28.731C30.0837 27.451 28.3988 26.6171 26.1135 26.2292V24.5419C28.7087 24.2704 30.7228 23.3395 32.156 21.7492C33.5891 20.1977 34.3057 18.2195 34.3057 15.8147V12.9056C34.3057 8.75526 32.9694 5.69102 30.2968 3.71283C27.6241 1.73465 23.4796 0.74556 17.8633 0.74556H0.781738ZM10.6588 28.3237H17.2242C19.3158 28.3237 20.807 28.6728 21.6979 29.371C22.6275 30.108 23.0923 31.3104 23.0923 32.9783V35.4219C23.0923 37.0898 22.6275 38.2728 21.6979 38.971C20.807 39.6692 19.3158 40.0183 17.2242 40.0183H10.6588V28.3237ZM10.6588 8.01829H17.3985C19.9549 8.01829 21.756 8.42556 22.8018 9.2401C23.8863 10.0934 24.4286 11.5092 24.4286 13.4874V16.1637C24.4286 18.1031 23.8863 19.4801 22.8018 20.2947C21.756 21.148 19.9549 21.5746 17.3985 21.5746H10.6588V8.01829Z" fill="black"/>
</g>
<defs>
<clipPath id="clip0_10945_175">
<rect width="340" height="47" fill="white" transform="matrix(1 0 0 -1 0.781738 47.8728)"/>
</clipPath>
</defs>
</svg>
