<svg width="340" height="47" viewBox="0 0 340 47" fill="none" xmlns="http://www.w3.org/2000/svg" preserveAspectRatio="none">
<path d="M316.818 46.4269V8.1391L303.513 8.1391V0.573242L340 0.573242V8.1391L326.695 8.1391V46.4269H316.818Z" fill="black"/>
<path d="M281.063 47C275.525 47 271.322 45.6817 268.456 43.0451C265.589 40.3703 264.156 36.6065 264.156 31.7537V15.4756C264.156 10.5846 265.589 6.78252 268.456 4.06951C271.361 1.3565 275.583 0 281.122 0C286.66 0 290.844 1.3565 293.671 4.06951C296.538 6.78252 297.971 10.5846 297.971 15.4756V31.7537C297.971 36.6065 296.538 40.3703 293.671 43.0451C290.805 45.6817 286.602 47 281.063 47ZM281.063 39.4341C283.581 39.4341 285.382 38.8037 286.467 37.5427C287.551 36.2435 288.094 34.0463 288.094 30.9512V16.278C288.094 13.1829 287.551 10.9667 286.467 9.62927C285.382 8.25366 283.581 7.56585 281.063 7.56585C278.546 7.56585 276.745 8.25366 275.66 9.62927C274.576 10.9667 274.033 13.1829 274.033 16.278V30.9512C274.033 34.0463 274.576 36.2435 275.66 37.5427C276.745 38.8037 278.546 39.4341 281.063 39.4341Z" fill="black"/>
<path d="M240.37 47C234.831 47 230.629 45.6817 227.762 43.0451C224.896 40.3703 223.463 36.6065 223.463 31.7537V15.4756C223.463 10.5846 224.896 6.78252 227.762 4.06951C230.667 1.3565 234.889 0 240.428 0C245.967 0 250.15 1.3565 252.978 4.06951C255.844 6.78252 257.277 10.5846 257.277 15.4756V31.7537C257.277 36.6065 255.844 40.3703 252.978 43.0451C250.112 45.6817 245.909 47 240.37 47ZM240.37 39.4341C242.888 39.4341 244.689 38.8037 245.773 37.5427C246.858 36.2435 247.4 34.0463 247.4 30.9512V16.278C247.4 13.1829 246.858 10.9667 245.773 9.62927C244.689 8.25366 242.888 7.56585 240.37 7.56585C237.852 7.56585 236.051 8.25366 234.967 9.62927C233.882 10.9667 233.34 13.1829 233.34 16.278V30.9512C233.34 34.0463 233.882 36.2435 234.967 37.5427C236.051 38.8037 237.852 39.4341 240.37 39.4341Z" fill="black"/>
<path d="M192.996 22.3537L200.549 22.3537C203.028 22.3537 204.751 21.9525 205.72 21.1501C206.727 20.3094 207.23 18.8574 207.23 16.794V13.5269C207.23 11.5781 206.727 10.2025 205.72 9.40007C204.751 8.55942 203.028 8.1391 200.549 8.1391L192.996 8.1391V22.3537ZM192.996 46.4269H183.119L183.119 0.573242L201.827 0.573242C206.901 0.573242 210.639 1.64316 213.04 3.783C215.481 5.88463 216.701 8.97975 216.701 13.0684V17.0232C216.701 20.3476 215.945 23.0224 214.435 25.0476C212.963 27.0346 210.716 28.3911 207.695 29.1171L218.037 46.4269L207.579 46.4269L197.702 29.8623H192.996L192.996 46.4269Z" fill="black"/>
<path d="M122.079 46.4269L122.079 0.573242L138.173 0.573242C143.596 0.573242 147.837 2.1017 150.897 5.15861C153.996 8.17731 155.545 12.2086 155.545 17.2525V29.9769C155.545 34.9826 153.996 38.9757 150.897 41.9562C147.837 44.9367 143.576 46.4269 138.115 46.4269L122.079 46.4269ZM131.956 38.861L137.301 38.861C140.323 38.861 142.472 38.0968 143.751 36.5684C145.029 35.0399 145.668 32.5753 145.668 29.1745V18.055C145.668 14.6159 145.029 12.1131 143.751 10.5464C142.472 8.94154 140.323 8.1391 137.301 8.1391H131.956V38.861Z" fill="black"/>
<path d="M102.999 27.6842L98.1189 8.31105L92.8899 27.6842L102.999 27.6842ZM107.764 46.4269L104.917 35.2501H90.8564L87.8352 46.4269H78.7134L92.0765 0.573242L103.871 0.573242L117.234 46.4269L107.764 46.4269Z" fill="black"/>
<path d="M50.57 22.3537L58.123 22.3537C60.602 22.3537 62.3256 21.9525 63.294 21.1501C64.301 20.3094 64.8046 18.8574 64.8046 16.794V13.5269C64.8046 11.5781 64.301 10.2025 63.294 9.40007C62.3256 8.55942 60.602 8.1391 58.123 8.1391L50.57 8.1391L50.57 22.3537ZM50.57 46.4269H40.6929L40.6929 0.573242L59.4012 0.573242C64.4753 0.573242 68.2131 1.64316 70.6146 3.783C73.0548 5.88463 74.275 8.97975 74.275 13.0684V17.0232C74.275 20.3476 73.5196 23.0224 72.009 25.0476C70.5372 27.0346 68.2906 28.3911 65.2694 29.1171L75.6113 46.4269L65.1532 46.4269L55.2761 29.8623H50.57L50.57 46.4269Z" fill="black"/>
<path d="M0 46.4269L0 0.573242L17.0815 0.573242C22.1944 0.573242 25.9709 1.4521 28.4111 3.20983C30.8514 4.96755 32.0715 7.68056 32.0715 11.3489V13.4696C32.0715 15.8005 31.5098 17.5964 30.3866 18.8574C29.302 20.1184 27.6171 20.9399 25.3318 21.322V22.9842C27.927 23.2517 29.9411 24.1688 31.3743 25.7354C32.8074 27.2639 33.524 29.2127 33.524 31.5818L33.524 34.4476C33.524 38.5363 32.1877 41.555 29.515 43.5037C26.8424 45.4525 22.6979 46.4269 17.0815 46.4269L0 46.4269ZM9.87708 19.2586H16.4424C18.5341 19.2586 20.0253 18.9147 20.9162 18.2269C21.8458 17.5009 22.3106 16.3163 22.3106 14.6732V12.2659C22.3106 10.6228 21.8458 9.45739 20.9162 8.76958C20.0253 8.08178 18.5341 7.73788 16.4424 7.73788L9.87708 7.73788L9.87708 19.2586ZM9.87708 39.2623L16.6167 39.2623C19.1732 39.2623 20.9743 38.8611 22.0201 38.0586C23.1046 37.218 23.6469 35.8232 23.6469 33.8745V31.2379C23.6469 29.3273 23.1046 27.9708 22.0201 27.1684C20.9743 26.3277 19.1732 25.9074 16.6167 25.9074H9.87708L9.87708 39.2623Z" fill="black"/>
</svg>
